<svg width="30" height="30" viewBox="0 0 30 30" fill="none" xmlns="http://www.w3.org/2000/svg">
<path d="M13.625 2.62509C7.87499 3.25009 3.24999 7.87509 2.62499 13.5001C1.87499 19.7501 5.74999 25.1251 11.25 26.8751V24.0001C11.25 24.0001 10.75 24.1251 10.125 24.1251C8.37499 24.1251 7.62499 22.6251 7.49999 21.7501C7.37499 21.2501 7.12499 20.8751 6.74999 20.5001C6.37499 20.3751 6.24999 20.3751 6.24999 20.2501C6.24999 20.0001 6.62499 20.0001 6.74999 20.0001C7.49999 20.0001 8.12499 20.8751 8.37499 21.2501C8.99999 22.2501 9.74999 22.5001 10.125 22.5001C10.625 22.5001 11 22.3751 11.25 22.2501C11.375 21.3751 11.75 20.5001 12.5 20.0001C9.62499 19.3751 7.49999 17.7501 7.49999 15.0001C7.49999 13.6251 8.12499 12.2501 8.99999 11.2501C8.87499 11.0001 8.74999 10.3751 8.74999 9.50009C8.74999 9.00009 8.74999 8.25009 9.12499 7.50009C9.12499 7.50009 10.875 7.50009 12.625 9.12509C13.25 8.87509 14.125 8.75009 15 8.75009C15.875 8.75009 16.75 8.87509 17.5 9.12509C19.125 7.50009 21 7.50009 21 7.50009C21.25 8.25009 21.25 9.00009 21.25 9.50009C21.25 10.5001 21.125 11.0001 21 11.2501C21.875 12.2501 22.5 13.5001 22.5 15.0001C22.5 17.7501 20.375 19.3751 17.5 20.0001C18.25 20.6251 18.75 21.7501 18.75 22.8751V27.0001C23.875 25.3751 27.5 20.6251 27.5 15.1251C27.5 7.62509 21.125 1.75009 13.625 2.62509Z" fill="#F5F5F5"/>
</svg>
