<svg width="1340" height="3422" viewBox="0 0 1340 3422" fill="none" xmlns="http://www.w3.org/2000/svg">
<path d="M1044.43 1829.78C1152 1823.52 1181.51 1747.32 1182.81 1710H1335.56C1325.12 1810.75 1313.37 1829.78 1252.01 1891.36C1202.92 1940.61 1113.19 1957.41 1074.45 1959.65H283.301C194.525 1967.71 161.886 2047.15 156.664 2077V2307.5C166.064 2384.52 240.654 2420.41 276.773 2422.65H1074.45C1140.57 2425.5 1235.04 2447.28 1306.84 2551.39C1325.5 2578.45 1334.93 2607.19 1338.4 2635C1340.82 2654.41 1340.33 2943.37 1338.05 2961C1333.54 2995.85 1322.01 3025.48 1312.06 3043.05C1259.84 3130.37 1186.64 3169.5 1109.7 3175.15H831.626C759.56 3175.15 739.803 3222.91 738.933 3246.79V3408H583.574V3241.2C593.612 3084 738.933 3039.5 848.597 3043.05H1060.09C1162.45 3037.67 1184.56 2969.16 1182.81 2935.58V2651.02C1177.31 2581 1097.52 2556.24 1066.62 2555.87H261.107C67.8878 2537.96 6.52767 2399.14 0 2331.97V2054.8C29.244 1876.58 196.701 1830.53 276.773 1829.78H1044.43Z" fill="#E6E8EC" fill-opacity="0.3"/>
<path d="M1044.43 1829.78C1152 1823.52 1181.51 1747.32 1182.81 1710H1335.56C1325.12 1810.75 1313.37 1829.78 1252.01 1891.36C1202.92 1940.61 1113.19 1957.41 1074.45 1959.65H283.301C194.525 1967.71 161.886 2047.15 156.664 2077V2307.5C166.064 2384.52 240.654 2420.41 276.773 2422.65H1074.45C1140.57 2425.5 1235.04 2447.28 1306.84 2551.39C1325.5 2578.45 1334.93 2607.19 1338.4 2635C1340.82 2654.41 1340.33 2943.37 1338.05 2961C1333.54 2995.85 1322.01 3025.48 1312.06 3043.05C1259.84 3130.37 1186.64 3169.5 1109.7 3175.15H831.626C759.56 3175.15 739.803 3222.91 738.933 3246.79V3408H583.574V3241.2C593.612 3084 738.933 3039.5 848.597 3043.05H1060.09C1162.45 3037.67 1184.56 2969.16 1182.81 2935.58V2651.02C1177.31 2581 1097.52 2556.24 1066.62 2555.87H261.107C67.8878 2537.96 6.52767 2399.14 0 2331.97V2054.8C29.244 1876.58 196.701 1830.53 276.773 1829.78H1044.43Z" fill="url(#paint0_linear)"/>
<path d="M1265.94 1715C1265.75 1755.62 1247.87 1843.61 1177.89 1870.65C1090.43 1904.44 1028.03 1904.95 939.399 1903.93C868.493 1903.11 512.948 1903.59 344.038 1903.93C296.028 1903.42 188.813 1911.92 144.03 1950.01C88.0506 1997.62 86.3012 2047.29 83.3856 2090.3C81.0532 2124.7 82.4138 2244.92 83.3856 2300.73C82.4138 2328.04 93.8817 2402.07 129.452 2427.19C183.098 2465.08 221.001 2471.23 325.379 2479.93H1015.79C1155.15 2473.27 1253.12 2535.23 1260.7 2666.81V2954.55C1260.89 3004.22 1230.49 3104.57 1107.34 3108.67C984.183 3112.76 874.091 3110.37 834.439 3108.67C781.958 3106.96 675.715 3129.25 670.583 3232.06C670.583 3236.57 670.583 3360.23 670.583 3421.5" stroke="#5D5B6A" stroke-width="5" stroke-dasharray="10 15"/>
<path d="M1265.94 1715C1265.75 1755.62 1247.87 1843.61 1177.89 1870.65C1090.43 1904.44 1028.03 1904.95 939.399 1903.93C868.493 1903.11 512.948 1903.59 344.038 1903.93C296.028 1903.42 188.813 1911.92 144.03 1950.01C88.0506 1997.62 86.3012 2047.29 83.3856 2090.3C81.0532 2124.7 82.4138 2244.92 83.3856 2300.73C82.4138 2328.04 93.8817 2402.07 129.452 2427.19C183.098 2465.08 221.001 2471.23 325.379 2479.93H1015.79C1155.15 2473.27 1253.12 2535.23 1260.7 2666.81V2954.55C1260.89 3004.22 1230.49 3104.57 1107.34 3108.67C984.183 3112.76 874.091 3110.37 834.439 3108.67C781.958 3106.96 675.715 3129.25 670.583 3232.06C670.583 3236.57 670.583 3360.23 670.583 3421.5" stroke="url(#paint1_linear)" stroke-width="5" stroke-dasharray="10 15"/>
<path d="M1044.43 1591.72C1152 1597.98 1181.51 1674.18 1182.81 1711.5L1335.56 1711.5C1325.12 1610.75 1313.37 1591.72 1252.01 1530.14C1202.92 1480.89 1113.19 1464.09 1074.45 1461.85L283.301 1461.85C194.525 1453.79 161.886 1374.35 156.664 1344.5L156.664 1114C166.064 1036.98 240.654 1001.09 276.773 998.851L1074.46 998.851C1140.57 996 1235.04 974.223 1306.84 870.11C1325.5 843.051 1334.93 814.313 1338.4 786.5C1340.82 767.088 1340.33 478.126 1338.05 460.5C1333.54 425.649 1322.01 396.02 1312.06 378.452C1259.84 291.132 1186.64 252 1109.7 246.353L831.626 246.353C759.56 246.353 739.803 198.588 738.933 174.706L738.933 13.5001L583.574 13.5001L583.574 180.303C593.612 337.5 738.933 382 848.598 378.452L1060.09 378.452C1162.45 383.826 1184.56 452.338 1182.81 485.923L1182.81 770.476C1177.31 840.5 1097.52 865.259 1066.62 865.632L261.107 865.632C67.8879 883.544 6.52773 1022.36 5.43744e-05 1089.53L3.01435e-05 1366.7C29.244 1544.92 196.701 1590.97 276.773 1591.72L1044.43 1591.72Z" fill="#E6E8EC" fill-opacity="0.3"/>
<path d="M1044.43 1591.72C1152 1597.98 1181.51 1674.18 1182.81 1711.5L1335.56 1711.5C1325.12 1610.75 1313.37 1591.72 1252.01 1530.14C1202.92 1480.89 1113.19 1464.09 1074.45 1461.85L283.301 1461.85C194.525 1453.79 161.886 1374.35 156.664 1344.5L156.664 1114C166.064 1036.98 240.654 1001.09 276.773 998.851L1074.46 998.851C1140.57 996 1235.04 974.223 1306.84 870.11C1325.5 843.051 1334.93 814.313 1338.4 786.5C1340.82 767.088 1340.33 478.126 1338.05 460.5C1333.54 425.649 1322.01 396.02 1312.06 378.452C1259.84 291.132 1186.64 252 1109.7 246.353L831.626 246.353C759.56 246.353 739.803 198.588 738.933 174.706L738.933 13.5001L583.574 13.5001L583.574 180.303C593.612 337.5 738.933 382 848.598 378.452L1060.09 378.452C1162.45 383.826 1184.56 452.338 1182.81 485.923L1182.81 770.476C1177.31 840.5 1097.52 865.259 1066.62 865.632L261.107 865.632C67.8879 883.544 6.52773 1022.36 5.43744e-05 1089.53L3.01435e-05 1366.7C29.244 1544.92 196.701 1590.97 276.773 1591.72L1044.43 1591.72Z" fill="url(#paint2_linear)"/>
<path d="M1265.94 1706.5C1265.75 1665.88 1247.87 1577.89 1177.89 1550.85C1090.43 1517.06 1028.03 1516.55 939.4 1517.57C868.493 1518.39 512.948 1517.91 344.038 1517.57C296.029 1518.08 188.813 1509.58 144.03 1471.49C88.0506 1423.88 86.3012 1374.21 83.3857 1331.2C81.0532 1296.8 82.4138 1176.58 83.3857 1120.77C82.4138 1093.46 93.8818 1019.43 129.452 994.306C183.098 956.418 221.001 950.274 325.379 941.57L1015.79 941.57C1155.15 948.226 1253.12 886.274 1260.7 754.69L1260.7 466.945C1260.89 417.281 1230.49 316.929 1107.34 312.833C984.183 308.737 874.091 311.126 834.439 312.833C781.958 314.539 675.715 292.25 670.583 189.44C670.583 184.935 670.583 61.2694 670.583 -0.000106348" stroke="#5D5B6A" stroke-width="5" stroke-dasharray="10 15"/>
<path d="M1265.94 1706.5C1265.75 1665.88 1247.87 1577.89 1177.89 1550.85C1090.43 1517.06 1028.03 1516.55 939.4 1517.57C868.493 1518.39 512.948 1517.91 344.038 1517.57C296.029 1518.08 188.813 1509.58 144.03 1471.49C88.0506 1423.88 86.3012 1374.21 83.3857 1331.2C81.0532 1296.8 82.4138 1176.58 83.3857 1120.77C82.4138 1093.46 93.8818 1019.43 129.452 994.306C183.098 956.418 221.001 950.274 325.379 941.57L1015.79 941.57C1155.15 948.226 1253.12 886.274 1260.7 754.69L1260.7 466.945C1260.89 417.281 1230.49 316.929 1107.34 312.833C984.183 308.737 874.091 311.126 834.439 312.833C781.958 314.539 675.715 292.25 670.583 189.44C670.583 184.935 670.583 61.2694 670.583 -0.000106348" stroke="url(#paint3_linear)" stroke-width="5" stroke-dasharray="10 15"/>
<path d="M1178.86 3089.36L1179.98 3091.01L1176.31 3093.51L1175.19 3091.86L1178.86 3089.36ZM1178.21 3096.31L1177.04 3094.58L1180.71 3092.08L1181.89 3093.81L1178.21 3096.31ZM1179.94 3101.58L1181.21 3100.71L1178.96 3097.4L1182.63 3094.9L1183.96 3096.87C1184.09 3097.04 1184.05 3097.16 1183.88 3097.3C1183.68 3097.43 1183.11 3097.83 1182.46 3098.24C1182.85 3098.47 1183.3 3098.83 1183.59 3099.13C1184.58 3098.45 1185.25 3097.99 1185.52 3097.49C1185.82 3097 1185.73 3096.6 1185.29 3095.96L1179.41 3087.31L1174.19 3090.86C1174.12 3090.12 1174.01 3089.36 1173.82 3088.61L1179.06 3085.05L1178.19 3083.76L1173.42 3087C1173.21 3086.21 1172.91 3085.43 1172.61 3084.65L1171.14 3085.3C1171.5 3086.18 1171.82 3087.07 1172.03 3087.94L1169.18 3089.89L1170.05 3091.18L1172.43 3089.56C1172.78 3091.64 1172.78 3093.61 1172.25 3095.43C1172.69 3095.45 1173.53 3095.6 1173.9 3095.73C1174.07 3094.91 1174.23 3094.08 1174.25 3093.2L1179.94 3101.58ZM1170.61 3092.63C1169.64 3092.06 1167.88 3091.4 1166.46 3091.01L1165.83 3092.22C1167.27 3092.63 1169.03 3093.38 1169.97 3093.96L1170.61 3092.63ZM1164.08 3091.26L1163.92 3091.46L1159.99 3094.13L1171.74 3111.42L1173.05 3110.53L1162.2 3094.57L1164.35 3093.11C1164.93 3094.69 1165.69 3096.84 1166.19 3098.65C1168.48 3099.44 1169.68 3100.66 1170.42 3101.75C1170.84 3102.37 1171.15 3102.99 1171.04 3103.39C1170.97 3103.58 1170.85 3103.75 1170.65 3103.92C1170.42 3104.1 1170.11 3104.32 1169.71 3104.5C1170.16 3104.74 1170.63 3105.21 1170.89 3105.55C1171.28 3105.32 1171.7 3105.03 1171.97 3104.79C1172.28 3104.49 1172.54 3104.17 1172.66 3103.8C1172.88 3103.1 1172.48 3102.09 1171.78 3101.06C1170.93 3099.81 1169.67 3098.52 1167.32 3097.65C1166.8 3095.65 1166.01 3093.17 1165.35 3091.18L1164.08 3091.26ZM1172.46 3095.49L1169.37 3097.59L1170.23 3098.86L1172.04 3097.63L1175.81 3103.19C1175.28 3104.02 1175.02 3105.48 1174.93 3107.19L1176.67 3107.78C1176.55 3105.97 1176.53 3104.24 1177.07 3103.88C1177.46 3103.61 1178.48 3103.82 1179.52 3103.86C1181.17 3103.9 1182.6 3103.4 1184.35 3102.21C1185.56 3101.38 1187.6 3099.91 1188.48 3099.19C1188.24 3098.8 1187.98 3098.03 1187.87 3097.58C1186.67 3098.63 1184.79 3100.05 1183.5 3100.92C1181.87 3102.03 1180.56 3102.58 1179.06 3102.55C1178.27 3102.54 1177.7 3102.46 1177.2 3102.45L1172.46 3095.49Z" fill="#758184" fill-opacity="0.6"/>
<path d="M1193.8 3084.44L1192.24 3082.71L1199.64 3076.05L1200.96 3077.51L1200.89 3078.05L1193.8 3084.44ZM1194.95 3070.84L1196.35 3072.39L1188.95 3079.06L1187.55 3077.5L1194.95 3070.84ZM1189.86 3080.07L1197.26 3073.41L1198.72 3075.03L1191.32 3081.7L1189.86 3080.07ZM1200.97 3071.39C1201.14 3072.63 1201.18 3073.88 1201.16 3075.16L1195.17 3068.51L1190.23 3072.95C1190.09 3072.22 1189.87 3071.41 1189.67 3070.65L1187.97 3071.77C1188.27 3072.43 1188.6 3073.36 1188.84 3074.21L1185.19 3077.5L1192.49 3085.61L1190.16 3087.72L1191.2 3088.88L1200.42 3080.57C1199.35 3085.06 1197.25 3089.53 1194.45 3093.77C1194.92 3093.8 1195.83 3093.98 1196.24 3094.15C1199.18 3089.35 1201.44 3084.25 1202.35 3079.06L1205.29 3082.32C1205.6 3082.66 1205.59 3082.9 1205.24 3083.27C1204.85 3083.63 1203.53 3084.85 1202.07 3086.06C1202.61 3086.26 1203.33 3086.67 1203.74 3086.98C1205.54 3085.36 1206.65 3084.3 1207.12 3083.49C1207.55 3082.68 1207.4 3082.08 1206.58 3081.17L1202.67 3076.83C1202.86 3074.86 1202.86 3072.88 1202.61 3070.92L1200.97 3071.39Z" fill="#758184" fill-opacity="0.6"/>
<path d="M1218.54 3050.62L1220.06 3051.91L1217.2 3055.3L1215.68 3054.01L1218.54 3050.62ZM1219.78 3057.48L1218.19 3056.13L1221.05 3052.74L1222.65 3054.09L1219.78 3057.48ZM1222.86 3062.09L1223.85 3060.92L1220.79 3058.33L1223.66 3054.94L1225.47 3056.48C1225.64 3056.62 1225.63 3056.74 1225.51 3056.92C1225.35 3057.1 1224.9 3057.63 1224.39 3058.2C1224.83 3058.32 1225.36 3058.55 1225.71 3058.76C1226.49 3057.84 1227.02 3057.22 1227.14 3056.66C1227.3 3056.1 1227.1 3055.74 1226.51 3055.25L1218.52 3048.49L1214.44 3053.31C1214.18 3052.62 1213.87 3051.91 1213.49 3051.25L1217.58 3046.41L1216.39 3045.4L1212.67 3049.8C1212.25 3049.1 1211.75 3048.43 1211.25 3047.76L1210.01 3048.78C1210.6 3049.53 1211.14 3050.3 1211.58 3051.08L1209.35 3053.72L1210.54 3054.73L1212.4 3052.53C1213.3 3054.45 1213.83 3056.35 1213.8 3058.24C1214.23 3058.13 1215.08 3058.06 1215.47 3058.08C1215.42 3057.25 1215.35 3056.41 1215.13 3055.56L1222.86 3062.09ZM1211.47 3055.98C1210.39 3055.7 1208.52 3055.53 1207.03 3055.54L1206.75 3056.87C1208.25 3056.88 1210.15 3057.13 1211.21 3057.43L1211.47 3055.98ZM1204.81 3056.42L1204.71 3056.65L1201.64 3060.28L1217.61 3073.77L1218.63 3072.56L1203.89 3060.11L1205.57 3058.13C1206.55 3059.49 1207.86 3061.36 1208.83 3062.96C1211.25 3063.12 1212.73 3063.96 1213.74 3064.82C1214.31 3065.3 1214.78 3065.82 1214.78 3066.23C1214.76 3066.43 1214.69 3066.63 1214.54 3066.84C1214.37 3067.08 1214.12 3067.37 1213.79 3067.66C1214.29 3067.77 1214.87 3068.09 1215.21 3068.36C1215.52 3068.02 1215.85 3067.64 1216.04 3067.33C1216.27 3066.96 1216.42 3066.58 1216.44 3066.19C1216.47 3065.46 1215.81 3064.59 1214.86 3063.79C1213.71 3062.81 1212.15 3061.9 1209.65 3061.7C1208.61 3059.92 1207.18 3057.74 1206.02 3056L1204.81 3056.42ZM1214.02 3058.24L1211.6 3061.1L1212.78 3062.09L1214.19 3060.42L1219.32 3064.76C1219.02 3065.7 1219.16 3067.17 1219.54 3068.84L1221.37 3068.95C1220.77 3067.24 1220.29 3065.58 1220.71 3065.08C1221.02 3064.72 1222.05 3064.65 1223.07 3064.41C1224.67 3064 1225.91 3063.13 1227.27 3061.52C1228.22 3060.4 1229.79 3058.43 1230.45 3057.51C1230.11 3057.19 1229.65 3056.52 1229.43 3056.11C1228.55 3057.44 1227.12 3059.32 1226.12 3060.51C1224.85 3062.01 1223.73 3062.89 1222.28 3063.27C1221.51 3063.47 1220.94 3063.55 1220.46 3063.67L1214.02 3058.24Z" fill="#758184" fill-opacity="0.6"/>
<path d="M1226.13 3039.61L1227.64 3037.24L1226.2 3036.33L1224.69 3038.7L1220.09 3035.78L1219.19 3037.2L1223.79 3040.12L1222.14 3042.71L1223.58 3043.62L1225.23 3041.03L1231.65 3045.11C1231.43 3046.45 1231.2 3047.66 1230.98 3048.58L1232.86 3048.94C1233.2 3046.66 1233.64 3043.73 1234.01 3040.95L1232.48 3040.4C1232.28 3041.39 1232.14 3042.38 1231.99 3043.33L1226.13 3039.61ZM1240.85 3039.44C1240.02 3040.76 1239.59 3040.85 1238.51 3040.17L1231.5 3035.72L1232.07 3032.27L1238.9 3036.61L1239.81 3035.17L1232.38 3030.45L1232.97 3026.87C1236.19 3028.92 1238.42 3030.38 1238.84 3030.79C1239.22 3031.18 1239.17 3031.43 1238.98 3031.74C1238.84 3031.96 1238.43 3032.61 1238.1 3033.08C1238.54 3033.11 1239.18 3033.34 1239.62 3033.54C1239.98 3032.97 1240.47 3032.2 1240.69 3031.55C1240.91 3030.89 1240.8 3030.25 1240.04 3029.62C1239.37 3028.97 1236.38 3027.01 1232.59 3024.61L1232.36 3024.35L1231.28 3025.14L1231.32 3025.57L1231.4 3026.07L1230.82 3029.45L1225.79 3026.26L1224.88 3027.7L1230.51 3031.28L1229.92 3034.71L1225.04 3031.61L1224.13 3033.05L1229.64 3036.55L1229.16 3039.32L1230.85 3039.57L1231.2 3037.54L1237.58 3041.6C1239.75 3042.97 1240.73 3042.63 1242.19 3040.34L1245.34 3035.38C1246.69 3033.25 1246.09 3032.22 1243.49 3030.23C1243.14 3030.6 1242.54 3031.01 1242.04 3031.21C1244.28 3032.83 1244.7 3033.38 1243.95 3034.56L1240.85 3039.44Z" fill="#758184" fill-opacity="0.6"/>
<path d="M1242.77 2998.78L1240.59 3003.54C1239.71 3003.39 1238.48 3003.31 1237.45 3003.31L1237.03 3004.97C1237.91 3005 1238.98 3005.09 1239.81 3005.24L1237.45 3010.39L1238.89 3011.05L1244.21 2999.44L1242.77 2998.78ZM1244.64 3008.93C1243.58 3008.6 1241.76 3008.35 1240.39 3008.35L1240.02 3009.9C1241.44 3009.97 1243.21 3010.26 1244.27 3010.61L1244.64 3008.93ZM1235.01 3011.17L1234.95 3011.46L1232.64 3016.5L1251.67 3025.22L1252.35 3023.74L1234.81 3015.69L1236.16 3012.75C1237.41 3013.88 1239.01 3015.4 1240.28 3016.72C1242.71 3015.96 1244.37 3016.25 1245.57 3016.8C1246.23 3017.1 1246.77 3017.48 1246.85 3017.94C1246.9 3018.17 1246.84 3018.41 1246.73 3018.71C1246.59 3019.07 1246.38 3019.47 1246.13 3019.96C1246.67 3019.89 1247.37 3020.03 1247.79 3020.2C1248.05 3019.76 1248.28 3019.18 1248.43 3018.75C1248.58 3018.26 1248.62 3017.81 1248.55 3017.4C1248.39 3016.59 1247.55 3015.89 1246.37 3015.35C1245.06 3014.75 1243.3 3014.39 1240.78 3015.16C1239.4 3013.63 1237.63 3011.84 1236.15 3010.4L1235.01 3011.17ZM1252.25 3006.16L1256.44 3008.08L1253.34 3014.84L1249.15 3012.92L1252.25 3006.16ZM1255.19 3017.59L1255.91 3016.02L1254.82 3015.52L1257.92 3008.76L1258.92 3009.22L1259.65 3007.63L1251.54 3003.91L1246.99 3013.83L1255.19 3017.59ZM1247.33 3004.33C1246.49 3003.23 1245.25 3001.95 1244.25 3000.86L1243.08 3002.32C1244.18 3003.25 1245.66 3004.75 1246.61 3005.9L1243.06 3013.64L1244.5 3014.3L1250.34 3001.56L1248.9 3000.9L1247.33 3004.33Z" fill="#758184" fill-opacity="0.6"/>
<path d="M1248.72 2974.55C1250.11 2975.53 1251.98 2977.2 1253.08 2978.38L1254.05 2977.17C1253 2975.98 1251.31 2974.36 1249.86 2973.02L1248.72 2974.55ZM1251.44 2983.53C1250.08 2983.49 1247.78 2983.77 1246 2984.21L1246.12 2985.8C1247.94 2985.43 1250.26 2985.2 1251.61 2985.29L1251.44 2983.53ZM1243.91 2987.04C1246.98 2989.42 1249.7 2992.68 1251.18 2995.66C1251.66 2995.48 1252.71 2995.25 1253.13 2995.2C1252.52 2994.06 1251.77 2992.9 1250.87 2991.73L1264.03 2995.71L1264.52 2994.11L1248.9 2989.38C1247.67 2988.03 1246.29 2986.73 1244.87 2985.6L1243.91 2987.04ZM1261.48 2975.31L1259.42 2982.13L1255.42 2980.92L1257.18 2975.09L1255.58 2974.6L1253.81 2980.43L1246.78 2978.31L1246.26 2980.03L1253.29 2982.16L1251.59 2987.78L1253.19 2988.27L1254.9 2982.64L1258.89 2983.85L1256.91 2990.42L1258.51 2990.91L1260.5 2984.34L1266.96 2986.29L1267.48 2984.57L1261.02 2982.62L1263.09 2975.79L1261.48 2975.31Z" fill="#758184" fill-opacity="0.6"/>
<path d="M1271.14 2955.79L1264.06 2954.66L1265.06 2948.33L1263.36 2948.06L1261.24 2961.38C1259.85 2960.63 1258.43 2959.92 1256.95 2959.29L1258.95 2946.73L1257.25 2946.46L1255.31 2958.59C1254.01 2958.07 1252.7 2957.62 1251.41 2957.17L1250.9 2958.96C1252.24 2959.39 1253.65 2959.88 1255.02 2960.42L1254.01 2966.75L1255.72 2967.02L1256.66 2961.09C1261.41 2963.16 1265.85 2965.98 1268.47 2969.97C1268.85 2969.69 1269.61 2969.23 1270.03 2969.03C1267.91 2965.87 1264.85 2963.42 1261.35 2961.45L1262.93 2961.7L1263.78 2956.42L1270.86 2957.55L1269.64 2965.25L1271.34 2965.52L1274.02 2948.69L1272.32 2948.42L1271.14 2955.79Z" fill="#758184" fill-opacity="0.6"/>
<path d="M1266.47 2922.7L1272.81 2922.84L1272.57 2933.47L1266.24 2933.33L1266.47 2922.7ZM1260.19 2918.98L1258.46 2918.94L1258.2 2930.77C1256.84 2930.29 1255.49 2929.9 1254.1 2929.53L1253.72 2931.37C1255.21 2931.71 1256.68 2932.15 1258.16 2932.67L1258 2939.75L1259.73 2939.78L1259.87 2933.35C1263.68 2934.95 1267.11 2937.33 1269.34 2940.76C1269.7 2940.41 1270.36 2939.87 1270.78 2939.62C1269.57 2937.86 1268.09 2936.37 1266.46 2935.08L1275.6 2935.29L1275.64 2933.53L1274.27 2933.5L1274.51 2922.87L1275.76 2922.9L1275.8 2921.08L1264.81 2920.84L1264.52 2933.74C1263.08 2932.85 1261.53 2932.09 1259.92 2931.43L1260.19 2918.98Z" fill="#758184" fill-opacity="0.6"/>
<path d="M1255.78 1605.24L1246.37 1593.05L1245.25 1593.91L1253.55 1604.66L1251.84 1605.98L1243.98 1595.8L1242.82 1596.7L1250.68 1606.88L1248.84 1608.3L1240.52 1597.53L1239.4 1598.4L1248.83 1610.61L1255.78 1605.24ZM1236.5 1603.24C1236.41 1605.01 1235.98 1607.2 1235.46 1608.41L1237.17 1608.94C1237.64 1607.7 1238 1605.57 1238.04 1603.78L1236.5 1603.24ZM1248.83 1614.73L1245.56 1610.5L1247.42 1609.06L1246.34 1607.66L1244.48 1609.09L1235.92 1598.02L1234.56 1599.07L1243.11 1610.15L1238.89 1613.41C1238.61 1613.63 1238.42 1613.59 1238.16 1613.24C1237.88 1612.92 1236.94 1611.7 1235.99 1610.4C1235.73 1610.88 1235.33 1611.55 1234.96 1611.92C1236.29 1613.65 1237.11 1614.72 1237.83 1615.17C1238.54 1615.62 1239.1 1615.49 1239.96 1614.83L1244.19 1611.56L1247.46 1615.79L1248.83 1614.73Z" fill="#758184" fill-opacity="0.6"/>
<path d="M1276.2 1643.99C1274.69 1643.95 1272.45 1643.66 1270.99 1643.3L1270.99 1644.94C1272.43 1645.32 1274.47 1645.69 1276.28 1645.94L1276.2 1643.99ZM1271.74 1636.6C1270.94 1637.65 1269.77 1638.76 1268.89 1639.32L1270.13 1640.74C1270.97 1640.15 1272.12 1639 1272.85 1637.9L1271.74 1636.6ZM1268.81 1630.94C1268.16 1632.11 1267.11 1633.37 1266.31 1634L1267.65 1635.28C1268.42 1634.64 1269.4 1633.35 1270.02 1632.17L1268.81 1630.94ZM1278.78 1644.16C1276.43 1640.88 1273.13 1634.49 1270.57 1629.06C1270.26 1629.38 1269.73 1629.86 1269.33 1630.07C1271.91 1635.59 1275.26 1642.06 1278 1646.01L1278.78 1644.16ZM1265.72 1632.92L1257.25 1636.56L1257.96 1638.21L1264.91 1635.23L1269.43 1645.75L1262.42 1648.76L1263.16 1650.48L1271.69 1646.81L1265.72 1632.92ZM1265.83 1639.93L1263.45 1640.95C1261.33 1641.86 1258.23 1642.54 1252.85 1635.61C1252.7 1636.11 1252.3 1636.89 1252.02 1637.27C1257.82 1644.39 1261.51 1643.79 1264.13 1642.67L1266.56 1641.62L1265.83 1639.93ZM1262.23 1643.88L1258.52 1645.47C1256.89 1646.17 1256.67 1646.87 1257.59 1649.01L1259.22 1652.8C1259.94 1654.5 1260.77 1654.72 1263.34 1653.82C1263.24 1653.34 1263.2 1652.58 1263.31 1652.11C1261.29 1652.88 1260.93 1652.85 1260.57 1652.01L1259.09 1648.55C1258.65 1647.53 1258.66 1647.32 1259.21 1647.08L1262.92 1645.49L1262.23 1643.88Z" fill="#758184" fill-opacity="0.6"/>
<path d="M1288.2 1675.07C1284.26 1674.25 1280.35 1672.38 1277.69 1670.12C1277.31 1670.52 1276.48 1671.23 1276.08 1671.46C1277.13 1672.3 1278.34 1673.08 1279.64 1673.77L1266.34 1675.84L1266.6 1677.57L1282.45 1675.11C1284.21 1675.86 1286.08 1676.47 1287.92 1676.91L1288.2 1675.07ZM1283.04 1691.78L1284.75 1691.51L1283.69 1684.66L1289.38 1683.77L1289.11 1682.04L1283.42 1682.93L1282.38 1676.26L1280.68 1676.53L1281.57 1682.27C1277.47 1681.37 1273.26 1679.45 1270.85 1677.21C1270.6 1677.66 1270.05 1678.35 1269.7 1678.74C1272.1 1680.75 1275.84 1682.48 1279.79 1683.49L1267.77 1685.36L1268.03 1687.09L1280.56 1685.15C1277.01 1687.32 1273.75 1690.14 1271.98 1692.77C1272.5 1692.98 1273.21 1693.5 1273.61 1693.88C1275.22 1691.1 1278.6 1688.05 1282.14 1685.94L1283.04 1691.78Z" fill="#758184" fill-opacity="0.6"/>
<path d="M1287.35 1720.31C1288.62 1719.71 1290.53 1718.36 1291.95 1717.19L1291.25 1715.75C1289.78 1716.96 1287.77 1718.26 1286.49 1718.78L1287.35 1720.31ZM1270.58 1712.81L1270.41 1714.51L1286.77 1716.11L1286.94 1714.41L1270.58 1712.81ZM1275.21 1729.83C1276.81 1728.93 1279.28 1727.09 1281.36 1725.34L1280.85 1730.55L1282.36 1730.7L1282.93 1724.87L1286.15 1725.19L1286.31 1723.59L1283.08 1723.27L1283.62 1717.78L1282.12 1717.63L1281.65 1722.38C1279.26 1720.89 1277.12 1718.66 1276.11 1716.46C1275.76 1716.81 1275.14 1717.26 1274.7 1717.48C1275.79 1719.45 1277.72 1721.44 1280 1722.97L1271.69 1722.15L1271.53 1723.75L1279.89 1724.57C1277.96 1726.1 1275.73 1727.64 1274.26 1728.43L1275.21 1729.83ZM1289.41 1734.72L1290.72 1721.39L1289.05 1721.23L1287.91 1732.83L1271.36 1731.21C1270.93 1731.17 1270.77 1731.01 1270.82 1730.56C1270.84 1730.08 1270.97 1728.5 1271.2 1726.86C1270.7 1727.1 1269.88 1727.31 1269.37 1727.33C1269.17 1729.43 1269.08 1730.85 1269.28 1731.69C1269.49 1732.5 1270.02 1732.82 1271.19 1732.93L1289.41 1734.72Z" fill="#758184" fill-opacity="0.6"/>
<path d="M1281.01 1759.61L1275.3 1775.28L1272.34 1774.2L1271.73 1775.89L1276.22 1777.53L1279.16 1769.43C1280.09 1769.41 1281.48 1769.25 1282.53 1769.1L1282.67 1767.18C1281.84 1767.29 1280.79 1767.37 1279.9 1767.43L1283.14 1758.52L1278.11 1756.69L1277.51 1758.33L1281.01 1759.61ZM1275.13 1767.96C1273.1 1769.83 1270.23 1772.23 1268.6 1773.32L1269.49 1774.9C1271.12 1773.7 1273.93 1771.25 1275.82 1769.42L1275.13 1767.96ZM1274.43 1756.7C1274.6 1759.72 1275.4 1762.8 1276.33 1765.16L1277.74 1764.37C1276.88 1762.09 1276.21 1759.24 1276.23 1756.23L1274.43 1756.7ZM1263.82 1763.18L1269.48 1765.24L1267.14 1771.67L1268.67 1772.22L1273.92 1757.82L1272.39 1757.26L1270.11 1763.5L1264.45 1761.44L1267.57 1752.87L1266.02 1752.3L1259.09 1771.31L1260.65 1771.88L1263.82 1763.18Z" fill="#758184" fill-opacity="0.6"/>
<path d="M1250.15 1789.1L1249.13 1790.58L1262.77 1799.93L1263.79 1798.45L1250.15 1789.1ZM1267.07 1801.13C1265.59 1801.43 1263.65 1801.61 1262.55 1801.53L1262.53 1803.26C1263.65 1803.36 1265.55 1803.09 1266.99 1802.74L1267.07 1801.13ZM1253.66 1799.8L1250.43 1804.51L1247.78 1802.69L1251.01 1797.98L1253.66 1799.8ZM1257.52 1802.45L1254.29 1807.16L1251.66 1805.35L1254.89 1800.64L1257.52 1802.45ZM1250.69 1795.81L1245.6 1803.23L1254.57 1809.38L1259.66 1801.96L1250.69 1795.81ZM1256.06 1816.84L1263.61 1805.83L1262.23 1804.88L1255.71 1814.38L1241.93 1804.94C1241.68 1804.76 1241.63 1804.61 1241.81 1804.36C1241.96 1804.14 1242.51 1803.29 1243.12 1802.49C1242.59 1802.42 1241.86 1802.21 1241.41 1802.01C1240.58 1803.22 1240.03 1804.07 1239.93 1804.76C1239.82 1805.44 1240.07 1805.87 1240.9 1806.44L1256.06 1816.84Z" fill="#758184" fill-opacity="0.6"/>
<path d="M664.841 55.0785L665.692 47.0113L667.028 47.1524L666.177 55.2196L664.841 55.0785ZM662.358 54.8166L663.209 46.7494L664.57 46.893L663.719 54.9602L662.358 54.8166ZM667.163 57.0853L668.374 45.605L662.24 44.9578L661.029 56.4381L667.163 57.0853ZM656.523 55.4559L656.808 52.7589L659.003 52.9905L658.719 55.6876L656.523 55.4559ZM656.956 51.3507L657.233 48.7252L659.429 48.9569L659.152 51.5824L656.956 51.3507ZM657.382 47.3171L657.651 44.7632L659.847 44.9949L659.578 47.5487L657.382 47.3171ZM659.765 57.439L661.228 43.572L656.598 43.0834L655.135 56.9504L659.765 57.439ZM666.105 43.5556C667.041 42.689 668.385 40.9244 669.31 39.4774L668.177 38.3202C667.207 39.7382 665.767 41.4928 664.812 42.3091L666.105 43.5556ZM659.72 41.627C660.68 40.7629 662.046 39.0247 662.963 37.6493L661.857 36.4707C660.889 37.8649 659.433 39.5453 658.48 40.3378L659.72 41.627ZM656.64 40.6263C654.198 39.0654 651.439 37.085 649.822 35.7078L648.47 37.0855C650.458 38.5985 653.09 40.4206 655.356 41.8181L656.64 40.6263ZM652.864 53.3081C651.912 52.2665 651.165 50.8844 650.579 49.3505C651.496 47.9751 652.51 46.8272 653.635 46.0046L652.864 53.3081ZM654.228 55.0207L654.189 54.7028L655.486 42.4111L654.03 42.2574L653.849 43.9759C652.404 44.8612 651.101 46.0028 650.009 47.4321C649.464 45.275 649.183 42.9045 649.139 40.583C648.748 40.8555 647.994 41.1379 647.55 41.2358C647.678 43.904 648.065 46.6477 648.868 49.0975C647.673 51.0469 646.71 53.3104 646.064 55.7762C646.494 56.0388 647.136 56.5892 647.457 56.985C647.972 54.8433 648.716 52.8222 649.602 51.0574C650.523 53.0852 651.783 54.8593 653.487 56.1008L654.228 55.0207Z" fill="#758184" fill-opacity="0.6"/>
<path d="M657.437 91.2325L659.141 91.2645L659.314 82.0742L662.361 82.1315L662.229 89.1383L663.909 89.1699L664.041 82.1631L666.56 82.2105L666.595 80.3628L659.349 80.2265L659.432 75.7633L664.856 75.8653L664.889 74.0896L659.466 73.9876L659.534 70.3882L657.83 70.3562L657.648 80.0265L650.089 79.8843L650.057 81.612C648.338 78.5791 647.258 74.6941 646.7 69.9547C646.26 70.3305 645.534 70.6769 645.027 70.8354C646.246 80.004 649.324 86.087 655.456 89.3469L656.256 87.6816C653.641 86.3122 651.638 84.3542 650.127 81.7333L657.613 81.8741L657.437 91.2325ZM656.694 75.8558C654.772 74.6914 652.863 72.7832 651.626 70.9356C651.33 71.3381 650.622 71.9729 650.257 72.2541C651.686 74.1293 653.903 76.2114 656.086 77.5487L656.694 75.8558Z" fill="#758184" fill-opacity="0.6"/>
<path d="M658.437 125.153L657.798 115.695L663.832 115.287L664.358 123.069L666.106 122.951L664.898 105.088L663.15 105.206L663.707 113.443L657.673 113.851L657.005 103.962L655.256 104.08L655.925 113.969L647.903 114.511C647.4 114.545 647.244 114.364 647.186 113.862C647.125 113.313 647.002 111.493 646.917 109.527C646.433 109.848 645.62 110.264 645.125 110.417C645.288 112.836 645.418 114.391 645.789 115.256C646.136 116.122 646.735 116.443 648.028 116.355L656.05 115.813L656.689 125.271L658.437 125.153Z" fill="#758184" fill-opacity="0.6"/>
<path d="M671.489 154.821C669.477 153.749 667.17 151.556 665.748 149.591C665.469 150.144 665.001 150.727 664.649 151.121C666.275 153.152 668.681 155.354 671.046 156.663L671.489 154.821ZM665.144 156.509C662.968 155.316 660.573 152.87 659.062 150.797C658.799 151.3 658.311 151.91 657.956 152.28C659.683 154.49 662.216 156.89 664.667 158.283L665.144 156.509ZM670.462 147.257C669.247 144.75 667.93 140.169 667.019 136.328C666.649 136.604 666.045 136.94 665.622 137.03C666.493 140.926 667.805 145.629 669.16 148.576L670.462 147.257ZM661.723 147.13C663.003 147.709 665.024 148.367 666.734 148.904L666.944 147.123C665.471 146.865 663.355 146.222 661.992 145.729L661.723 147.13ZM662.765 145.075C663.72 144.659 665.159 143.756 666.187 142.868L665.571 141.555C664.511 142.399 663.022 143.286 662.039 143.681L662.765 145.075ZM661.496 141.434C662.488 140.94 663.89 139.8 664.888 138.722L664.09 137.486C663.064 138.544 661.611 139.668 660.591 140.141L661.496 141.434ZM658.484 150.207L660.097 149.957L659.34 145.071L661.806 144.689L661.541 142.981L659.075 143.364L658.222 137.861L656.609 138.111L657.378 143.068C654.82 142.08 652.052 140.202 650.478 138.358C650.182 138.792 649.544 139.377 649.126 139.66C650.683 141.24 653.04 142.818 655.375 143.937L648.26 145.04L648.525 146.748L656.067 145.579C655.094 147.138 653.83 148.694 652.916 149.54L654.266 150.569C655.299 149.559 656.739 147.563 657.786 145.701L658.484 150.207ZM658.561 158.064C655.454 156.821 652.507 153.951 650.626 150.745C650.296 151.282 649.761 151.899 649.327 152.234C651.518 155.561 654.662 158.45 658.142 159.902L658.561 158.064Z" fill="#758184" fill-opacity="0.6"/>
<path d="M673.86 182.084C672.715 181.647 671.42 181.001 670.416 180.332L668.91 174.178C670.012 174.847 671.185 175.499 672.37 175.999L673.86 182.084ZM666.418 188.526L665.054 182.955L669.11 181.962L670.475 187.533L666.418 188.526ZM667.387 174.922L668.699 180.283L664.643 181.276L663.331 175.915L667.387 174.922ZM656.84 180.691C656.224 178.174 656.454 177.598 657.829 177.262L661.675 176.32L664.763 188.931L663.738 189.182L664.154 190.884L672.5 188.841L670.93 182.43C672.317 183.252 673.909 183.999 675.344 184.512L675.88 183.17L675.701 182.843L674.2 176.713C674.787 176.89 675.345 177.05 675.927 177.204L676.133 175.523C672.615 174.679 669.075 172.531 666.659 170.133C666.331 170.51 665.618 171.228 665.256 171.465C665.916 172.045 666.6 172.618 667.372 173.146L657.441 175.577C654.761 176.234 654.388 177.536 655.284 181.196L657.475 190.147C658.331 193.644 659.552 194.087 663.262 193.598C663.23 193.063 663.315 192.3 663.486 191.789C660.364 192.257 659.626 192.067 659.061 189.759L656.84 180.691Z" fill="#758184" fill-opacity="0.6"/>
<path d="M670.833 211.301L669.268 209.373L676.724 206.848L677.455 209.008L679.024 208.477L678.293 206.317L683.544 204.54L683.013 202.971L677.762 204.749L676.962 202.385L675.393 202.916L676.193 205.28L668.169 207.996C667.466 207.119 666.84 206.318 666.336 205.652L664.862 206.76C666.166 208.294 667.8 210.275 669.44 212.127L670.833 211.301ZM681.111 221.377C678.85 221.585 676.74 221.564 674.75 221.225C676.862 220.129 679.589 218.902 682.688 217.727L684.296 222.478L685.864 221.947L685.303 220.287L686.46 221.162C687.049 220.355 687.702 218.842 688.091 217.595L686.978 216.705C686.551 217.914 685.815 219.405 685.272 220.196L684.241 217.15C685.347 216.75 686.529 216.35 687.711 215.95L687.165 214.336C685.983 214.736 684.831 215.151 683.71 215.582L681.393 208.739L674.369 211.117C671.436 212.11 667.631 213.145 664.247 211.756C664.166 212.189 663.836 213.011 663.602 213.368C667.244 214.847 671.695 213.771 674.877 212.693L675.877 212.355L676.847 215.219C672.755 216.528 671.269 216.93 670.843 216.795C670.608 216.774 670.524 216.6 670.431 216.327C670.331 216.031 670.093 215.327 669.899 214.531C669.59 214.889 669.037 215.202 668.598 215.402C668.83 216.236 669.099 217.031 669.291 217.448C669.544 217.97 669.818 218.257 670.32 218.392C671.034 218.631 672.884 218.106 678.09 216.42C678.302 216.373 678.779 216.212 678.779 216.212L677.309 211.87L680.356 210.839L682.156 216.158C678.278 217.649 674.847 219.19 672.342 220.697C670.176 220.062 668.221 219.077 666.529 217.673C666.417 218.091 666.011 218.913 665.77 219.248C667.24 220.372 668.868 221.214 670.624 221.836C668.726 223.264 667.776 224.65 668.207 225.923C668.707 227.4 669.915 227.524 673.409 226.619C673.43 226.156 673.594 225.518 673.85 225.077C671.205 225.871 670.014 226.021 669.868 225.589C669.606 224.816 670.656 223.726 672.653 222.441C675.282 223.097 678.183 223.281 681.392 223.03L681.111 221.377Z" fill="#758184" fill-opacity="0.6"/>
<path d="M697.067 253.247L698.672 252.544L694.85 243.816L695.085 244.054C695.808 243.371 696.865 242.017 697.588 240.914L696.421 239.565C695.763 240.456 694.879 241.55 694.176 242.277L690.075 232.912L688.47 233.614L692.369 242.518L689.401 243.818L686.436 237.047L676.675 241.321L677.387 242.948L685.544 239.376L687.796 244.521L677.134 249.19L677.856 250.838L688.518 246.169L690.915 251.644L684.847 254.301C684.54 254.435 684.404 254.364 684.186 253.988C684.023 253.614 683.445 252.295 682.834 250.78C682.469 251.202 681.935 251.777 681.458 252.064C682.276 253.933 682.837 255.155 683.428 255.787C684.022 256.365 684.602 256.373 685.548 255.959L693.242 252.59L690.123 245.467L693.091 244.167L697.067 253.247Z" fill="#758184" fill-opacity="0.6"/>
<defs>
<linearGradient id="paint0_linear" x1="670" y1="1710" x2="670" y2="3378" gradientUnits="userSpaceOnUse">
<stop offset="0.0317951" stop-color="white"/>
<stop offset="0.491713" stop-color="#E6E8EC" stop-opacity="0.1"/>
<stop offset="0.941603" stop-color="white"/>
</linearGradient>
<linearGradient id="paint1_linear" x1="674.021" y1="1715" x2="674.021" y2="3421.5" gradientUnits="userSpaceOnUse">
<stop stop-color="white"/>
<stop offset="0.187906" stop-color="#E6E8EC"/>
<stop offset="0.677359" stop-color="#E6E8EC"/>
<stop offset="1" stop-color="white"/>
</linearGradient>
<linearGradient id="paint2_linear" x1="670" y1="1711.5" x2="670" y2="43.4998" gradientUnits="userSpaceOnUse">
<stop offset="0.0317951" stop-color="white"/>
<stop offset="0.491713" stop-color="#E6E8EC" stop-opacity="0.1"/>
<stop offset="0.941603" stop-color="white"/>
</linearGradient>
<linearGradient id="paint3_linear" x1="674.021" y1="1706.5" x2="674.021" y2="-5.17476e-05" gradientUnits="userSpaceOnUse">
<stop stop-color="white"/>
<stop offset="0.187906" stop-color="#E6E8EC"/>
<stop offset="0.677359" stop-color="#E6E8EC"/>
<stop offset="1" stop-color="white"/>
</linearGradient>
</defs>
</svg>
