<svg width="30" height="30" viewBox="0 0 30 30" fill="none" xmlns="http://www.w3.org/2000/svg">
<circle cx="15" cy="15" r="15" fill="#F5F5F5"/>
<path d="M13.8445 15.0497C13.1414 14.8643 12.4343 14.9333 11.7312 15.2351C11.0362 15.5369 10.5319 15.9964 10.2125 16.6099C9.89513 17.2351 9.87504 17.8486 10.1422 18.464C10.4094 19.0695 10.9056 19.4876 11.6207 19.7125C12.364 19.9571 13.1193 19.9176 13.8726 19.5961C14.626 19.2845 15.1623 18.7874 15.4616 18.1109C15.771 17.4481 15.761 16.8249 15.4335 16.2272C15.1141 15.6335 14.5898 15.2449 13.8445 15.0497ZM12.7738 18.2509C12.6252 18.4758 12.4162 18.6316 12.139 18.7283C11.8718 18.815 11.6227 18.8052 11.3957 18.6987C11.1687 18.5902 11.0201 18.4265 10.9598 18.2016C10.8996 17.9669 10.9397 17.744 11.0884 17.5192C11.227 17.2943 11.4359 17.1483 11.693 17.0616C11.9301 16.9767 12.1912 16.9807 12.4263 17.0714C12.6633 17.1681 12.814 17.3357 12.8823 17.5685C12.9526 17.8012 12.9124 18.0261 12.7738 18.2509ZM13.716 17.0497C13.6718 17.1424 13.5874 17.2134 13.487 17.245C13.3925 17.2746 13.2921 17.2746 13.1997 17.245C13.0028 17.1483 12.9626 17.0004 13.0711 16.7972C13.1716 16.6237 13.3825 16.5428 13.5773 16.602C13.6617 16.6355 13.728 16.7026 13.7561 16.7874C13.7863 16.8722 13.7662 16.961 13.716 17.0497Z" fill="#5D5B6A"/>
<path d="M20.5421 14.5901C20.2206 14.3889 19.8751 14.2331 19.5115 14.1227C19.4332 14.0931 19.3729 14.0734 19.3428 14.0635C19.3026 14.0398 19.2624 14.0142 19.2242 13.9846C19.174 13.9451 19.1539 13.9057 19.174 13.8584C19.2021 13.7972 19.2182 13.7302 19.2242 13.6631C19.5216 12.9017 19.5216 12.3159 19.2242 11.8958C18.9169 11.4954 18.4006 11.2903 17.6875 11.2903C16.9743 11.2903 16.1487 11.4855 15.2166 11.8761L15.1563 11.8958C15.1121 11.9155 15.0659 11.9273 15.0177 11.9352C14.9695 11.953 14.9193 11.9569 14.8691 11.9451C14.8269 11.9412 14.7887 11.9155 14.7706 11.8761C14.7505 11.8366 14.7505 11.7676 14.7807 11.6808C15.088 10.7242 15.0177 10.0299 14.5838 9.61171C14.0977 9.12452 13.266 9.10479 12.1129 9.54268C10.9498 9.99239 9.80878 10.7715 8.67779 11.8859C7.82604 12.7341 7.15911 13.5842 6.69305 14.4442C6.227 15.3061 6 16.1148 6 16.8742C6 17.5863 6.21896 18.2411 6.65488 18.8565C7.0908 19.462 7.66534 19.9591 8.38249 20.3516C9.08559 20.7422 9.90118 21.0439 10.7931 21.2688C11.6951 21.4917 12.6232 21.6041 13.5533 21.6002C14.4954 21.5903 15.4094 21.4917 16.2712 21.2885C17.1431 21.0834 17.8984 20.8112 18.5432 20.47C19.1539 20.1524 19.7244 19.7638 20.2407 19.3102C20.7168 18.8802 21.0844 18.4226 21.3315 17.9512C21.5786 17.4738 21.6991 17.0143 21.6991 16.5645C21.6951 16.1484 21.5746 15.746 21.3476 15.4008C21.1206 15.0497 20.8514 14.7834 20.5421 14.5901ZM17.2676 19.1583C16.2853 19.9492 15.0438 20.4068 13.5593 20.5646C12.577 20.6613 11.6629 20.5942 10.8011 20.3595C9.93935 20.1248 9.24228 19.7638 8.70793 19.2766C8.17357 18.7894 7.87425 18.2234 7.816 17.5863C7.71756 16.6198 8.16353 15.7401 9.14586 14.961C10.1282 14.17 11.3697 13.7124 12.8542 13.5546C13.8365 13.458 14.7505 13.525 15.6123 13.7499C16.4741 13.9846 17.1712 14.3456 17.7056 14.8327C18.2399 15.3199 18.5392 15.886 18.5975 16.5231C18.6979 17.4876 18.252 18.3673 17.2676 19.1583ZM20.3412 12.7065C20.4034 12.8485 20.528 12.955 20.6787 12.9984C20.8273 13.0477 20.976 13.028 21.1246 12.9589C21.2733 12.882 21.3717 12.7735 21.4219 12.6177C21.5525 12.2489 21.5706 11.8583 21.4922 11.4579C21.4139 11.0575 21.2251 10.6965 20.9478 10.3849C20.3954 9.77542 19.5517 9.50323 18.7361 9.67088C18.5774 9.70047 18.4569 9.78726 18.3685 9.92533C18.2781 10.0634 18.258 10.2094 18.2881 10.3652C18.3062 10.5309 18.3966 10.6472 18.5352 10.736C18.6718 10.8188 18.8345 10.8465 18.9912 10.8129C19.4071 10.734 19.7646 10.8524 20.0619 11.164C20.3492 11.4855 20.4275 11.8465 20.299 12.2666C20.2528 12.4145 20.2709 12.5605 20.3412 12.7065Z" fill="#5D5B6A"/>
<path d="M23.899 10.9687C23.7362 10.1442 23.3465 9.37889 22.768 8.76152C22.1814 8.1185 21.4883 7.67865 20.6828 7.42421C19.8692 7.17173 19.0556 7.13229 18.232 7.30783C18.0492 7.34136 17.8905 7.44788 17.7941 7.60173C17.6856 7.75755 17.6554 7.92323 17.6956 8.10864C17.7358 8.29405 17.8342 8.44198 17.9929 8.53863C18.1476 8.6412 18.3385 8.6767 18.5193 8.63528C19.0958 8.51891 19.6944 8.54849 20.2569 8.72404C20.8314 8.89959 21.3276 9.2132 21.7455 9.67081C22.1573 10.1067 22.4345 10.6472 22.549 11.233C22.6695 11.8267 22.6394 12.4026 22.4506 12.9411C22.4024 13.1265 22.4124 13.2922 22.5008 13.4579C22.5771 13.6216 22.7218 13.7439 22.8965 13.7991C23.0854 13.8563 23.2541 13.8465 23.4229 13.7597C23.5836 13.6729 23.7041 13.5289 23.7603 13.3593C24.0275 12.5999 24.0677 11.807 23.899 10.9687Z" fill="#5D5B6A"/>
</svg>
