<svg width="647" height="477" viewBox="0 0 647 477" fill="none" xmlns="http://www.w3.org/2000/svg">
<g id="undraw_sunny_day 1" clip-path="url(#clip0)">
<path id="shadow2" opacity="0.1" d="M604.99 303.525C583.167 331.212 591.658 371.667 605.51 404.061C610.144 414.906 615.395 426.386 613.437 438.013C611.043 452.238 598.34 462.64 585.002 468.156C560.688 478.206 531.586 475.807 509.262 461.922C489.955 449.923 476.123 430.4 456.488 418.953C423.625 399.783 381.788 407.024 346.087 420.235C320.836 429.58 293.236 441.726 268.146 431.965C250.494 425.097 238.292 408.371 231.643 390.644C228.433 382.089 226.103 372.821 219.974 366.036C216.328 362.002 211.572 359.142 206.7 356.73C162.212 334.688 106.023 346.469 62.8129 322.047C33.6273 305.539 14.949 274.396 6.67539 241.925C-1.59825 209.454 -0.641871 175.38 1.45703 141.94C2.95257 118.173 5.62915 92.8013 20.8285 74.4591C36.8751 55.0523 64.4753 47.8372 89.4375 51.5249C114.4 55.2126 136.98 68.36 156.872 83.8418C181.725 103.191 204.781 127.286 235.295 135.149C256.104 140.465 277.928 137.541 299.372 136.528C335.208 134.834 371.056 138.599 406.686 142.71C440.801 146.648 475.16 150.99 507.664 162.078C530.662 169.928 549.103 184.172 570.817 194.145C584.97 200.629 600.407 202.425 613.822 210.685C630.331 220.863 645.466 238.564 641.236 259.279C637.212 278.955 616.556 288.832 604.99 303.525Z" fill="#F9A826"/>
<path id="shadow1" opacity="0.1" d="M136.043 477C210.565 477 270.976 467.809 270.976 456.471C270.976 445.133 210.565 435.942 136.043 435.942C61.5219 435.942 1.11043 445.133 1.11043 456.471C1.11043 467.809 61.5219 477 136.043 477Z" fill="#F9A826"/>
<path id="Moon" d="M569.578 63.8001C587.211 63.8001 601.505 49.518 601.505 31.9C601.505 14.2821 587.211 0 569.578 0C551.946 0 537.652 14.2821 537.652 31.9C537.652 49.518 551.946 63.8001 569.578 63.8001Z" fill="#FFDF9C"/>
<g id="buiding">
<path id="Vector" d="M74.0263 329.724C74.0263 329.724 77.3447 334.059 72.4987 340.626C67.6526 347.194 63.6538 352.658 65.2648 356.743C65.2648 356.743 72.5757 344.596 78.5322 344.423C84.4887 344.25 80.5733 337.028 74.0263 329.724Z" fill="#F9A826"/>
<path id="Vector_2" opacity="0.1" d="M74.0263 329.724C74.3165 330.142 74.5456 330.6 74.7067 331.083C80.4835 337.901 83.6093 344.263 78.0251 344.423C72.826 344.571 66.5871 353.863 65.0915 356.211C65.1415 356.391 65.2015 356.569 65.2713 356.743C65.2713 356.743 72.5821 344.596 78.5386 344.423C84.4951 344.25 80.5733 337.028 74.0263 329.724Z" fill="black"/>
<path id="Vector_3" d="M80.1882 335.246C80.1882 336.772 80.0149 338.01 79.8031 338.01C79.5913 338.01 79.418 336.772 79.418 335.246C79.418 333.719 79.6298 334.437 79.8416 334.437C80.0534 334.437 80.1882 333.719 80.1882 335.246Z" fill="#FFD037"/>
<path id="Vector_4" d="M82.3064 337.067C80.9649 337.798 79.7967 338.241 79.694 338.055C79.5913 337.869 80.599 337.125 81.9405 336.4C83.282 335.675 82.7493 336.201 82.852 336.4C82.9547 336.599 83.6479 336.336 82.3064 337.067Z" fill="#FFD037"/>
<path id="Vector_5" d="M56.4841 329.724C56.4841 329.724 53.1657 334.059 58.0118 340.626C62.8578 347.194 66.8823 352.658 65.2648 356.743C65.2648 356.743 57.954 344.596 51.9975 344.423C46.041 344.25 49.9628 337.028 56.4841 329.724Z" fill="#F9A826"/>
<path id="Vector_6" opacity="0.1" d="M56.4841 329.724C56.1939 330.142 55.9648 330.6 55.8038 331.083C50.027 337.901 46.9011 344.263 52.4853 344.423C57.6844 344.571 63.9233 353.863 65.4189 356.211C65.3689 356.391 65.3089 356.569 65.2392 356.743C65.2392 356.743 57.954 344.59 51.9911 344.423C46.0281 344.256 49.9628 337.028 56.4841 329.724Z" fill="black"/>
<path id="Vector_7" d="M50.3415 335.246C50.3415 336.772 50.5148 338.01 50.7266 338.01C50.9384 338.01 51.1117 336.772 51.1117 335.246C51.1117 333.719 50.8999 334.437 50.6881 334.437C50.4763 334.437 50.3415 333.719 50.3415 335.246Z" fill="#FFD037"/>
<path id="Vector_8" d="M48.2297 337.067C49.5712 337.798 50.7394 338.241 50.8421 338.055C50.9448 337.869 49.9371 337.125 48.5956 336.4C47.2541 335.675 47.7868 336.201 47.6841 336.4C47.5815 336.599 46.8561 336.336 48.2297 337.067Z" fill="#FFD037"/>
<path id="Vector_9" d="M51.4006 356.172C51.4006 356.172 60.6755 355.89 63.4676 353.896C66.2597 351.901 77.7299 349.534 78.4231 352.722C79.1163 355.909 92.358 368.582 81.8891 368.666C71.4203 368.749 57.5689 367.037 54.7768 365.337C51.9846 363.637 51.4006 356.172 51.4006 356.172Z" fill="#A8A8A8"/>
<path id="Vector_10" opacity="0.2" d="M82.0753 367.562C71.6065 367.646 57.755 365.933 54.9629 364.234C52.8383 362.951 51.9911 358.302 51.7086 356.159H51.4006C51.4006 356.159 51.9846 363.631 54.7768 365.331C57.5689 367.03 71.4203 368.742 81.8891 368.659C84.9123 368.659 85.9522 367.562 85.8944 365.972C85.4772 366.94 84.3218 367.543 82.0753 367.562Z" fill="black"/>
<path id="Vector_11" d="M384.548 74.0871H257.696V116.851H384.548V74.0871Z" fill="#E2E7F0"/>
<path id="Vector_12" opacity="0.4" d="M298.949 75.7289H266.695V115.088H298.949V75.7289Z" fill="white"/>
<path id="Vector_13" d="M292.44 87.5039H273.518V102.691H292.44V87.5039Z" fill="#D8E2F0"/>
<path id="Vector_14" opacity="0.4" d="M338.025 75.7289H305.772V115.088H338.025V75.7289Z" fill="white"/>
<path id="Vector_15" d="M331.517 87.5039H312.595V102.691H331.517V87.5039Z" fill="#D8E2F0"/>
<path id="Vector_16" opacity="0.4" d="M377.102 75.7289H344.848V115.088H377.102V75.7289Z" fill="white"/>
<path id="Vector_17" d="M370.594 87.5039H351.671V102.691H370.594V87.5039Z" fill="#D8E2F0"/>
<path id="Vector_18" opacity="0.1" d="M384.554 74.0871V77.2938H258.415H257.702V74.0871H384.554Z" fill="black"/>
<path id="Vector_19" d="M378.489 49.4213L361.601 36.4086H279.622L264.05 49.3059H264.134C259.172 51.7237 248.53 55.7193 235.975 53.1988C235.975 53.1988 236.617 75.5173 258.441 75.5173H385.376C385.376 75.5173 403.618 76.3382 406.281 53.1988C396.846 54.5611 387.217 53.2524 378.489 49.4213Z" fill="#F9A826"/>
<path id="Vector_20" d="M413.136 161.45H233.864V221.889H413.136V161.45Z" fill="#E2E7F0"/>
<path id="Vector_21" opacity="0.4" d="M292.158 158.82H246.572V214.443H292.158V158.82Z" fill="white"/>
<path id="Vector_22" d="M282.953 175.463H256.213V196.922H282.953V175.463Z" fill="#D8E2F0"/>
<path id="Vector_23" opacity="0.4" d="M347.384 158.82H301.799V214.443H347.384V158.82Z" fill="white"/>
<path id="Vector_24" d="M338.186 175.463H311.446V196.922H338.186V175.463Z" fill="#D8E2F0"/>
<path id="Vector_25" opacity="0.4" d="M402.616 158.82H357.031V214.443H402.616V158.82Z" fill="white"/>
<path id="Vector_26" d="M393.412 175.463H366.672V196.922H393.412V175.463Z" fill="#D8E2F0"/>
<path id="Vector_27" d="M434.607 288.454H216.764V364.657H434.607V288.454Z" fill="#F9A826"/>
<path id="Vector_28" d="M434.607 288.454H216.764V364.657H434.607V288.454Z" fill="#E2E7F0"/>
<path id="Vector_29" d="M305.303 288.454H239.557V362.906H305.303V288.454Z" fill="#D8E2F0"/>
<path id="Vector_30" opacity="0.4" d="M292.158 288.454H252.709V362.906H292.158V288.454Z" fill="white"/>
<path id="Vector_31" d="M281.201 299.408H261.477V352.401H281.201V299.408Z" fill="#D8E2F0"/>
<path id="Vector_32" d="M410.941 288.454H345.195V362.906H410.941V288.454Z" fill="#D8E2F0"/>
<path id="Vector_33" opacity="0.4" d="M397.796 288.454H358.347V362.906H397.796V288.454Z" fill="white"/>
<path id="Vector_34" d="M386.833 299.408H367.108V352.401H386.833V299.408Z" fill="#D8E2F0"/>
<path id="Vector_35" d="M462.663 361.155V288.46C468.44 288.364 501.303 285.818 506.496 240.719C506.496 240.719 478.055 246.324 447.104 232.664L410.941 204.804H235.616L202.303 232.382H202.483C191.873 237.551 169.106 246.068 142.257 240.719C142.257 240.719 143.489 285.26 185.653 288.287V361.155H462.663ZM185.653 361.155H462.663H185.653ZM447.322 361.155H200.987H447.322ZM200.987 361.155V288.454H447.322V361.155" fill="#F9A826"/>
<path id="Vector_36" opacity="0.1" d="M413.136 161.45H233.864V169.21H413.136V161.45Z" fill="black"/>
<path id="Vector_37" d="M408.586 127.985L384.317 108.27H257.625L235.372 127.793H235.5C227.99 131.455 211.892 137.477 192.887 133.68C192.887 133.68 193.818 167.459 226.848 167.459H418.977C418.977 167.459 446.578 168.697 450.615 133.68C450.589 133.68 430.486 137.65 408.586 127.985Z" fill="#F9A826"/>
<path id="Vector_38" opacity="0.1" d="M434.389 288.236H216.546V290.448H434.389V288.236Z" fill="black"/>
<path id="Vector_39" opacity="0.1" d="M202.521 232.619H447.104C447.104 232.619 341.472 241.482 202.521 232.619Z" fill="black"/>
<path id="Vector_40" opacity="0.1" d="M233.639 127.504H408.534C408.534 127.504 333 136.374 233.639 127.504Z" fill="black"/>
<path id="Vector_41" opacity="0.1" d="M263.884 49.1135H378.7C378.7 49.1135 329.129 57.9832 263.884 49.1135Z" fill="black"/>
<path id="Vector_42" d="M647 360.521H37.4143V376.945H647V360.521Z" fill="#D8E2F0"/>
</g>
<g id="woman">
<path id="Vector_43" d="M85.06 222.813L89.1486 234.434L86.0099 253.943C86.0099 253.943 81.2665 269.509 81.7415 277.031C82.2165 284.554 81.7415 294.957 81.7415 294.957C81.7415 294.957 70.3548 315.71 79.8159 324.202C82.0175 326.171 83.8661 325.779 85.4002 324.009C86.9428 324.864 88.5305 325.635 90.1564 326.318L82.1908 357.224L74.604 372.321C74.604 372.321 58.4996 386.007 52.3313 414.79C52.3313 414.79 46.1822 433.96 42.2604 439.681C42.0817 439.949 41.8867 440.206 41.6763 440.45C41.0622 439.474 40.5008 438.466 39.9946 437.43L32.8827 456.298C32.8827 456.298 47.1129 464.314 57.0746 467.617C67.0364 470.92 78.4231 467.143 81.7415 462.903C85.06 458.664 75.0982 453.925 67.9863 451.109C64.5331 449.737 62.6525 446.479 61.619 443.484C61.5292 442.56 61.4522 441.521 61.4201 440.399C61.266 435.044 62.0619 427.816 66.555 422.333C74.6297 412.43 86.9599 387.931 86.9599 387.931C86.9599 387.931 99.2901 374.726 102.14 369.538L119.22 341.05C128.694 351.747 138.187 377.029 138.187 377.029L141.981 400.117C141.981 400.117 154.311 433.133 158.111 436.435C158.22 436.525 158.322 436.634 158.425 436.737L158.521 436.84L158.746 437.102L158.836 437.218C158.932 437.34 159.035 437.474 159.131 437.609L159.202 437.712L159.433 438.058L159.542 438.231L159.741 438.571L159.837 438.731L160.107 439.232L160.203 439.418L160.389 439.79L160.498 440.008L160.691 440.418L160.768 440.591L161.018 441.169L161.115 441.393L161.281 441.81L161.371 442.041L161.583 442.586L161.634 442.721L161.853 443.317L161.93 443.541L162.097 444.016L162.167 444.215L162.385 444.856V444.946L162.572 445.536L162.636 445.735L162.803 446.274L162.841 446.408L163.04 447.05L163.079 447.184L163.226 447.71L163.278 447.903L163.412 448.403L163.451 448.544L163.605 449.108L163.676 449.384L163.746 449.66L163.83 449.993V450.083C163.939 450.519 164.041 450.93 164.131 451.302L164.24 451.776L164.292 452.001V452.058C163.595 451.597 162.932 451.087 162.308 450.532C162.584 453.671 162.584 456.827 162.308 459.966C161.833 464.68 166.577 471.286 166.577 471.286C166.577 471.286 209.267 460.909 211.636 453.835C214.004 446.761 204.049 447.704 201.199 448.646C198.349 449.589 184.215 446.864 182.29 443.561C181.929 442.951 181.498 442.384 181.006 441.874C180.597 441.428 180.051 441.132 179.454 441.033C178.857 440.934 178.244 441.038 177.713 441.329L177.604 441.213L177.476 441.066L177.392 440.963L177.238 440.764C177.136 440.623 177.033 440.469 176.924 440.309L176.808 440.136C176.62 439.837 176.427 439.514 176.23 439.168L176.192 439.103C173.162 433.582 169.908 422.32 169.131 419.639V419.581L169.067 419.363V419.28V419.222V419.113V419.062L158.156 383.686C161.474 370.949 158.156 364.818 158.156 364.818L151.987 336.047L148.508 323.015C148.617 322.906 148.669 322.836 148.669 322.836C145.832 314.909 143.604 298.093 142.25 285.099C142.16 284.244 142.075 283.419 141.993 282.624L152.494 287.46C152.494 287.46 166.724 309.156 175.736 298.779C184.748 288.402 157.713 279.436 157.713 279.436L140.568 268.117L140.53 267.623L138.604 253.475C138.604 253.475 133.386 236.493 135.761 225.173C137.783 215.553 131.197 212.051 129.201 211.23C128.888 211.111 128.566 211.017 128.238 210.948C125.639 210.307 122.737 207.69 120.273 204.856C118.172 202.423 115.708 200.329 112.968 198.647C114.568 197.586 115.683 195.935 116.068 194.055C116.466 191.881 115.715 189.72 115.048 187.584C116.014 185.221 117.135 182.924 118.405 180.709H118.482C118.679 180.371 118.871 180.053 119.06 179.754C124.067 179.181 128.689 176.788 132.046 173.031C135.403 169.274 137.259 164.415 137.263 159.378C137.264 155.915 136.38 152.509 134.695 149.483C136.82 148.745 138.861 147.815 138.091 145.635C137.571 144.16 136.165 143.197 135.106 142.062C132.25 139.061 131.377 134.552 128.386 131.679C127.521 130.86 126.52 130.198 125.427 129.723C122.391 128.004 118.501 127.799 114.99 128.44C110.645 129.236 106.595 131.147 102.358 132.378C98.629 133.456 94.7264 134.014 91.1513 135.534C85.0535 138.099 80.3615 143.396 77.5437 149.367C75.0533 154.645 73.8979 160.488 71.1764 165.651C68.4549 170.813 63.474 175.463 57.601 175.271C56.0862 175.219 54.52 174.854 53.1079 175.38C51.9952 175.864 51.0744 176.703 50.4891 177.765C47.2798 182.999 49.3402 190.047 46.7855 195.627C44.8599 199.776 40.7841 202.399 37.4207 205.51C34.0574 208.62 31.169 213.257 32.7544 217.541C33.2064 218.618 33.869 219.593 34.7034 220.41C35.5378 221.227 36.5271 221.87 37.6133 222.3C38.7237 222.907 39.9208 223.339 41.1628 223.583C44.3721 224.224 47.6392 223.839 50.8806 223.583C59.6549 222.941 69.2444 223.294 76.2086 217.958C79.0778 215.758 81.2858 212.725 83.5837 209.858C83.6076 214.217 84.1026 218.56 85.06 222.813ZM97.6919 252.475C98.4043 253.648 99.1296 254.816 99.8806 255.97C106.851 266.667 97.3966 281.303 97.3966 281.303C95.2407 283.069 93.3871 285.175 91.9087 287.537C92.0306 283.047 92.5505 277.916 94.0782 274.229C96.4338 268.521 97.3581 258.048 97.6919 252.475Z" fill="url(#paint0_linear)"/>
<path id="Vector_44" d="M90.5607 231.971L86.8572 255.008C86.8572 255.008 82.2229 270.214 82.6851 277.583C83.1472 284.952 82.6851 295.091 82.6851 295.091C82.6851 295.091 71.5679 315.364 80.8301 323.657C90.0922 331.949 92.8779 297.394 92.8779 297.394C92.8779 297.394 91.485 282.643 94.7329 274.819C97.9807 266.995 98.4364 249.941 98.4364 249.941L90.5607 231.971Z" fill="#FFCDD3"/>
<path id="Vector_45" opacity="0.05" d="M90.5607 231.971L86.8572 255.008C86.8572 255.008 82.2229 270.214 82.6851 277.583C83.1472 284.952 82.6851 295.091 82.6851 295.091C82.6851 295.091 71.5679 315.364 80.8301 323.657C90.0922 331.949 92.8779 297.394 92.8779 297.394C92.8779 297.394 91.485 282.643 94.7329 274.819C97.9807 266.995 98.4364 249.941 98.4364 249.941L90.5607 231.971Z" fill="black"/>
<path id="Vector_46" d="M144.843 311.189L151.262 335.175L157.257 363.278C157.257 363.278 160.498 369.268 157.257 381.704L167.912 416.259C167.912 416.259 173.933 438.372 177.643 438.834C181.353 439.296 173.939 456.343 173.939 456.343L163.746 450.353C163.746 450.353 160.98 436.532 157.257 433.306C153.534 430.08 141.506 397.833 141.506 397.833L137.802 375.258C137.802 375.258 126.248 344.391 116.03 337.022C105.811 329.653 102.596 317.673 102.596 317.673L144.843 311.189Z" fill="#FFCDD3"/>
<path id="Vector_47" opacity="0.05" d="M102.602 317.667C102.602 317.667 105.844 329.647 116.036 337.016C126.229 344.385 137.808 375.252 137.808 375.252L141.512 397.827C141.512 397.827 153.56 430.08 157.263 433.299C159.985 435.666 162.206 443.747 163.194 447.871C163.554 449.365 163.753 450.346 163.753 450.346L173.945 456.343C173.945 456.343 181.359 439.296 177.649 438.834C177.071 438.764 176.442 438.193 175.788 437.224C172.219 432.055 167.918 416.259 167.918 416.259L157.257 381.704C160.498 369.262 157.257 363.278 157.257 363.278L151.236 335.175L144.818 311.189L102.602 317.667Z" fill="black"/>
<path id="Vector_48" d="M43.3002 437.449L47.0038 446.203L63.6923 444.362C63.1781 441.984 62.8923 439.561 62.8386 437.128C62.691 431.901 63.4805 424.84 67.858 419.485C75.7337 409.807 87.7558 385.853 87.7558 385.853C87.7558 385.853 99.8036 372.956 102.583 367.896L125.806 329.198L125.074 325.722L131.326 319.95H92.4286L83.16 355.864L75.7401 370.615C75.7401 370.615 59.9887 383.974 53.968 412.078C53.968 412.078 47.9602 430.798 44.1346 436.391C43.8927 436.77 43.6131 437.125 43.3002 437.449Z" fill="#FFCDD3"/>
<path id="Vector_49" opacity="0.1" d="M163.201 447.877C163.56 449.371 163.759 450.352 163.759 450.352L173.945 456.343C173.945 456.343 181.359 439.296 177.649 438.834C177.071 438.764 176.442 438.193 175.788 437.224C175.302 437.507 174.923 437.942 174.709 438.461C174.494 438.98 174.456 439.555 174.6 440.098C174.745 440.786 174.992 441.45 175.332 442.066C176.725 444.369 170.698 448.056 170.698 448.056C168.682 450.641 165.383 449.275 163.201 447.877Z" fill="black"/>
<path id="Vector_50" d="M175.075 441.008C174.952 440.435 175.02 439.837 175.268 439.306C175.517 438.775 175.932 438.339 176.451 438.066C176.971 437.793 177.565 437.697 178.144 437.793C178.723 437.889 179.255 438.171 179.658 438.597C180.136 439.096 180.554 439.649 180.903 440.245C182.758 443.452 196.655 446.235 199.434 445.312C202.213 444.388 211.944 443.471 209.627 450.378C207.31 457.285 165.601 467.399 165.601 467.399C165.601 467.399 160.967 460.947 161.429 456.343C161.699 453.276 161.699 450.193 161.429 447.127C161.429 447.127 167.918 453.117 171.16 448.967C171.16 448.967 177.18 445.28 175.794 442.977C175.458 442.36 175.216 441.696 175.075 441.008Z" fill="#DCE6F2"/>
<path id="Vector_51" opacity="0.1" d="M43.3002 437.449L47.0038 446.203L63.6923 444.362C63.1781 441.984 62.8923 439.561 62.8386 437.128C62.6737 436.797 62.4308 436.512 62.131 436.295C61.8311 436.079 61.4831 435.938 61.117 435.886C60.7508 435.834 60.3774 435.871 60.0288 435.995C59.6803 436.118 59.3669 436.325 59.1158 436.596C58.2557 437.519 57.3827 438.52 56.7409 439.289C54.8859 441.592 48.8652 440.213 48.8652 440.213C47.3055 440.726 45.4505 438.488 44.1282 436.423C43.8865 436.791 43.6092 437.135 43.3002 437.449Z" fill="black"/>
<path id="Vector_52" d="M58.6536 437.519C58.931 437.226 59.2813 437.012 59.6686 436.899C60.056 436.785 60.4666 436.777 60.8584 436.874C61.2501 436.971 61.609 437.171 61.8983 437.452C62.1876 437.733 62.3969 438.086 62.5048 438.475C63.3457 441.752 65.1942 445.985 69.2252 447.588C76.1766 450.353 85.9136 454.957 82.6594 459.132C79.4051 463.308 68.2944 466.963 58.5702 463.737C48.8459 460.511 34.9431 452.681 34.9431 452.681L41.8945 434.255C41.8945 434.255 45.6173 442.06 48.3966 441.162C48.3966 441.162 54.4173 442.547 56.2723 440.239C56.9206 439.411 57.7679 438.443 58.6536 437.519Z" fill="#DCE6F2"/>
<path id="Vector_53" d="M121.601 178.529C121.601 178.529 110.484 193.735 113.257 204.33C116.03 214.924 91.0165 197.416 91.0165 197.416C91.0165 197.416 103.989 185.872 101.671 167.01L121.601 178.529Z" fill="#FFCDD3"/>
<path id="Vector_54" d="M85.0022 322.733C103.533 333.79 125.773 329.185 125.773 329.185L125.311 325.978L126.274 326.068C143.983 327.626 148.014 322.291 148.014 322.291C145.241 314.543 143.072 298.125 141.717 285.433C141.525 283.612 141.345 281.861 141.185 280.225C140.819 276.525 140.543 273.414 140.369 271.304C140.215 269.451 140.138 268.386 140.138 268.386L138.277 254.533C138.277 254.533 133.181 237.948 135.498 226.892C137.468 217.477 131.043 214.065 129.079 213.27C128.772 213.153 128.457 213.061 128.136 212.994C125.568 212.398 122.763 209.787 120.356 207.042C116.846 203.045 112.372 200.009 107.358 198.224C105.028 197.384 103.051 196.486 103.051 196.486C99.81 192.798 91.0036 195.101 91.0036 195.101C80.3487 202.014 85.9072 224.602 85.9072 224.602L90.3361 237.192C92.884 244.169 96.2562 250.817 100.381 256.996C107.191 267.443 97.955 281.739 97.955 281.739C83.6093 293.244 85.0022 322.733 85.0022 322.733Z" fill="#FF748E"/>
<path id="Vector_55" opacity="0.05" d="M124.612 301.312L126.268 326.055C143.977 327.614 148.008 322.278 148.008 322.278C145.235 314.53 143.065 298.112 141.711 285.42C141.518 283.599 141.339 281.848 141.178 280.212L124.612 301.312Z" fill="black"/>
<path id="Vector_56" opacity="0.1" d="M95.195 236.576C95.195 236.576 103.539 252.237 106.312 259.151C109.085 266.065 109.091 263.756 110.484 266.065C111.877 268.373 126.698 278.507 126.698 278.507L141.711 285.42C141.069 279.469 140.62 274.331 140.363 271.311L126.242 261.941C126.242 261.941 116.511 255.951 116.049 248.12C115.587 240.289 109.56 226.007 109.56 226.007C109.56 226.007 97.5057 213.084 92.4286 219.074C87.3514 225.064 95.195 236.576 95.195 236.576Z" fill="black"/>
<path id="Vector_57" d="M109.554 223.679C109.554 223.679 115.574 237.961 116.043 245.792C116.511 253.623 126.236 259.613 126.236 259.613L156.814 279.885C156.814 279.885 183.22 288.64 174.42 298.773C165.62 308.906 151.718 287.716 151.718 287.716L126.685 276.172C126.685 276.172 111.858 266.039 110.471 263.73C109.085 261.421 109.079 263.73 106.299 256.817C103.52 249.903 95.1822 234.242 95.1822 234.242C95.1822 234.242 87.3065 222.697 92.4029 216.733C97.4993 210.769 109.554 223.679 109.554 223.679Z" fill="#FFCDD3"/>
<path id="Vector_58" opacity="0.1" d="M113.264 229.669C113.264 229.669 103.982 222.762 102.14 220.453C101.325 219.433 100.054 219.587 98.8922 220.074C96.7192 220.993 94.3566 221.373 92.0049 221.184C89.9766 221.011 88.0061 221.126 88.2436 222.281C88.7058 224.583 86.8508 210.3 86.8508 210.3L94.7264 207.536L104.919 213.065L113.264 229.669Z" fill="black"/>
<path id="Vector_59" d="M113.264 228.745C113.264 228.745 103.982 221.825 102.14 219.536C101.325 218.516 100.054 218.67 98.8922 219.157C96.7228 220.081 94.3624 220.468 92.0114 220.286C89.9831 220.113 88.0125 220.228 88.25 221.383C88.7122 223.685 86.8572 209.403 86.8572 209.403L94.7329 206.638L104.926 212.167L113.264 228.745Z" fill="#FF748E"/>
<path id="Vector_60" opacity="0.1" d="M135.081 229.669C133.407 230.398 131.583 230.716 129.762 230.596C127.94 230.475 126.174 229.92 124.612 228.976" fill="black"/>
<path id="Vector_61" opacity="0.1" d="M104.688 168.165C105.035 165.413 101.607 171.128 101.216 167.934L121.114 179.478C121.114 179.478 119.977 181.036 118.546 183.493C117.792 183.578 117.033 183.62 116.274 183.621C110.279 183.595 108.379 172.295 104.688 168.165Z" fill="black"/>
<path id="Vector_62" d="M116.736 182.678C127.867 182.678 136.891 173.705 136.891 162.636C136.891 151.568 127.867 142.595 116.736 142.595C105.605 142.595 96.5814 151.568 96.5814 162.636C96.5814 173.705 105.605 182.678 116.736 182.678Z" fill="#FFCDD3"/>
<path id="Vector_63" opacity="0.1" d="M125.806 162.983C125.652 164.265 125.684 165.548 125.08 166.69C124.239 168.254 122.423 168.966 120.902 169.896C114.746 173.667 112.917 182.152 114.881 189.072C115.574 191.522 116.672 194.004 116.216 196.512C115.433 200.815 110.503 203.047 106.126 203.425C101.748 203.804 97.1399 203.105 93.064 204.708C86.1511 207.363 83.1215 215.412 77.2741 219.901C70.4704 225.115 61.0991 224.795 52.5367 225.398C49.3659 225.622 46.1565 226 43.0435 225.398C39.9304 224.795 36.8623 222.903 35.7583 219.94C34.205 215.758 37.042 211.224 40.3155 208.19C43.5891 205.157 47.6007 202.598 49.4621 198.57C51.959 193.119 49.9435 186.238 53.0822 181.126C53.6567 180.088 54.5596 179.269 55.6497 178.798C57.0361 178.279 58.5702 178.638 60.0465 178.689C65.7655 178.888 70.6501 174.347 73.3074 169.306C75.9647 164.265 77.0944 158.557 79.5271 153.401C82.2743 147.565 86.8572 142.421 92.8201 139.888C96.3119 138.407 100.118 137.862 103.764 136.803C107.904 135.604 111.858 133.738 116.101 132.955C120.343 132.173 125.151 132.692 128.251 135.675C131.172 138.484 132.025 142.883 134.811 145.821C135.864 146.93 137.218 147.866 137.725 149.309C138.925 152.721 133.091 153.01 131.146 154.376C129.714 155.369 128.5 156.645 127.582 158.126C126.663 159.606 126.059 161.259 125.806 162.983Z" fill="black"/>
<path id="Vector_64" d="M124.849 162.527C124.695 163.81 124.727 165.093 124.124 166.234C123.283 167.799 121.467 168.511 119.945 169.441C113.79 173.212 111.961 181.697 113.925 188.617C114.618 191.067 115.715 193.549 115.26 196.056C114.477 200.36 109.547 202.592 105.17 202.97C100.792 203.348 96.1835 202.649 92.1076 204.253C85.2268 206.921 82.1972 214.944 76.3499 219.433C69.5461 224.647 60.1749 224.326 51.6124 224.929C48.4416 225.154 45.2322 225.532 42.1192 224.929C39.0061 224.326 35.938 222.435 34.834 219.472C33.2807 215.29 36.1177 210.756 39.3913 207.722C42.6648 204.689 46.6764 202.13 48.5378 198.102C51.0347 192.651 49.0192 185.769 52.158 180.658C52.7324 179.619 53.6354 178.801 54.7254 178.33C56.1118 177.81 57.6459 178.17 59.1222 178.221C64.8412 178.42 69.7258 173.879 72.3831 168.838C75.0405 163.797 76.1701 158.089 78.6028 152.933C81.35 147.097 85.9329 141.953 91.8958 139.42C95.3876 137.939 99.1938 137.393 102.84 136.335C106.98 135.136 110.934 133.27 115.176 132.487C119.419 131.705 124.227 132.224 127.327 135.206C130.247 138.015 131.101 142.415 133.887 145.352C134.939 146.462 136.294 147.398 136.801 148.841C138.001 152.253 132.166 152.542 130.222 153.908C128.782 154.899 127.562 156.176 126.638 157.659C125.713 159.142 125.104 160.799 124.849 162.527Z" fill="#2D283D"/>
</g>
</g>
<defs>
<linearGradient id="paint0_linear" x1="122.185" y1="471.395" x2="122.185" y2="128.081" gradientUnits="userSpaceOnUse">
<stop stop-color="#808080" stop-opacity="0.25"/>
<stop offset="0.54" stop-color="#808080" stop-opacity="0.12"/>
<stop offset="1" stop-color="#808080" stop-opacity="0.1"/>
</linearGradient>
<clipPath id="clip0">
<rect width="647" height="477" fill="white"/>
</clipPath>
</defs>
</svg>
