<svg width="30" height="30" viewBox="0 0 30 30" fill="none" xmlns="http://www.w3.org/2000/svg">
<path d="M15 0.404785C6.93 0.404785 0.404999 6.92979 0.404999 14.9998C0.404999 23.0698 6.945 29.5948 15 29.5948C23.055 29.5948 29.595 23.0548 29.595 14.9998C29.595 6.94479 23.07 0.404785 15 0.404785ZM23.34 19.7548C23.34 20.5798 22.62 21.2548 21.72 21.2548H8.79C7.905 21.2548 7.17 20.5798 7.17 19.7548L7.185 12.3448L15.06 16.3348C15.18 16.3948 15.33 16.3948 15.45 16.3348L23.34 12.3448V19.7548ZM15.27 14.9248L7.185 10.7548C7.2 9.92978 7.905 9.26978 8.79 9.26978H21.72C22.605 9.26978 23.325 9.92978 23.34 10.7548C23.34 10.7398 15.27 14.9248 15.27 14.9248Z" fill="#F5F5F5"/>
</svg>
