<svg width="30" height="30" viewBox="0 0 30 30" fill="none" xmlns="http://www.w3.org/2000/svg">
<path d="M16 21.5C16.0625 21.25 16.0625 20.9375 16.0625 20.625C16.0625 20.3125 16.0625 20.0625 16 19.75L17.75 18.5C17.9375 18.375 18 18.125 17.875 17.9375L16.1875 15.0625C16.0625 14.875 15.875 14.8125 15.6875 14.875L13.75 15.8125C13.3125 15.4375 12.8125 15.1875 12.25 14.9375L12.0625 12.8125C12.0625 12.625 11.875 12.4375 11.6875 12.4375H8.375C8.1875 12.4375 8 12.625 8 12.8125L7.75 15C7.1875 15.1875 6.75 15.5 6.25 15.875L4.3125 15C4.125 14.9375 3.875 15 3.8125 15.1875L2.125 18.0625C2 18.25 2.0625 18.5 2.25 18.625L4 19.875C3.9375 20.125 3.9375 20.4375 3.9375 20.75C3.9375 21.0625 3.9375 21.3125 4 21.625L2.25 22.875C2.0625 23 2 23.25 2.125 23.4375L3.8125 26.3125C3.9375 26.5 4.125 26.5625 4.3125 26.5L6.25 25.625C6.6875 26 7.1875 26.25 7.75 26.5L7.9375 28.625C7.9375 28.8125 8.125 29 8.3125 29H11.625C11.8125 29 12 28.8125 12 28.625L12.1875 26.5C12.75 26.3125 13.1875 26 13.6875 25.625L15.625 26.5C15.8125 26.5625 16.0625 26.5 16.125 26.3125L17.8125 23.4375C17.9375 23.25 17.875 23 17.6875 22.875L16 21.5ZM10 23.75C8.25 23.75 6.875 22.375 6.875 20.625C6.875 18.875 8.25 17.5 10 17.5C11.75 17.5 13.125 18.875 13.125 20.625C13.125 22.375 11.75 23.75 10 23.75Z" fill="#F8A978"/>
<path d="M26.1875 9.5625C26.25 9.25 26.25 9 26.25 8.75C26.25 8.5 26.25 8.25 26.1875 7.9375L27.75 6.8125C27.9375 6.6875 27.9375 6.5 27.875 6.3125L26.3125 3.625C26.1875 3.4375 26 3.375 25.8125 3.5L24 4.3125C23.5625 4 23.125 3.75 22.625 3.5L22.4375 1.5625C22.5 1.375 22.375 1.25 22.1875 1.25H19.125C18.9375 1.25 18.75 1.375 18.75 1.5625L18.5625 3.5C18.0625 3.6875 17.625 3.9375 17.1875 4.3125L15.375 3.5C15.1875 3.4375 15 3.5 14.875 3.625L13.3125 6.3125C13.1875 6.5 13.25 6.6875 13.4375 6.8125L15 7.9375C15 8.25 15 8.5 15 8.75C15 9 15 9.25 15.0625 9.5625L13.5 10.6875C13.3125 10.8125 13.3125 11 13.375 11.1875L14.9375 13.875C15.0625 14.0625 15.25 14.125 15.4375 14L17.25 13.1875C17.6875 13.5 18.125 13.75 18.625 14L18.8125 15.9375C18.8125 16.125 19 16.25 19.1875 16.25H22.25C22.4375 16.25 22.625 16.125 22.625 15.9375L22.8125 14C23.3125 13.8125 23.75 13.5625 24.1875 13.1875L26 14C26.1875 14.0625 26.375 14 26.5 13.875L28.0625 11.1875C28.1875 11 28.125 10.8125 27.9375 10.6875L26.1875 9.5625ZM20.625 11.875C18.875 11.875 17.5 10.5 17.5 8.75C17.5 7 18.875 5.625 20.625 5.625C22.375 5.625 23.75 7 23.75 8.75C23.75 10.5 22.375 11.875 20.625 11.875Z" fill="#F67280"/>
</svg>
