<svg width="30" height="30" viewBox="0 0 30 30" fill="none" xmlns="http://www.w3.org/2000/svg">
<circle cx="15" cy="15" r="15" fill="#F5F5F5"/>
<mask id="path-2-inside-1" fill="white">
<path d="M19.0326 11.8948H18.9908V11.8538C18.9926 11.8449 18.9926 11.836 18.9908 11.827C18.4235 9.18389 15.6253 7.2002 12.469 7.2002C8.89806 7.2002 5.99988 9.71145 5.99988 12.8109C5.99988 14.4559 6.81988 15.9406 8.36715 17.1187L8.39624 17.1401L7.86351 18.7905C7.81806 18.9117 7.85442 19.0507 7.95442 19.1327C8.05079 19.2182 8.18715 19.2396 8.30351 19.1844L10.3562 18.1453L10.6053 18.197C11.2162 18.3467 11.8417 18.4287 12.469 18.4429C12.7162 18.434 12.9617 18.4002 13.2017 18.3413H13.2435L13.2617 18.3841C14.0599 20.293 16.1544 21.5709 18.4744 21.5709C19.0744 21.5495 19.6708 21.4532 20.249 21.2857H20.269L21.849 22.1608C21.9617 22.2232 22.0999 22.2107 22.1999 22.1287C22.2999 22.0467 22.3417 21.9131 22.3053 21.7883L21.9053 20.4427L21.929 20.4195C23.269 19.3252 23.9999 18.0205 23.9999 16.7284C23.9999 14.2866 21.8108 12.1764 19.0181 11.9179L19.0326 11.8948ZM12.9072 16.5769C12.9072 16.8995 12.9472 17.2221 13.0253 17.5357L13.0399 17.5963H12.9817C12.8126 17.6106 12.6381 17.6177 12.4708 17.6177C11.9053 17.6017 11.3435 17.5233 10.7944 17.3878L10.4544 17.3183C10.3872 17.304 10.3181 17.313 10.2562 17.345L8.8417 18.0633L9.2017 16.9672C9.24533 16.8424 9.20533 16.7052 9.1017 16.625C7.62351 15.5734 6.85988 14.2937 6.85988 12.8233C6.85988 10.1731 9.37988 8.03075 12.4799 8.03075C15.1417 8.03075 17.5799 9.67581 18.129 11.8591L18.1472 11.9215H18.0817C15.2235 11.9928 12.9072 14.0906 12.9072 16.5769ZM21.2108 19.8706C21.109 19.9472 21.0653 20.0809 21.1035 20.2038L21.3308 20.9791L20.3726 20.4462C20.3053 20.4088 20.2272 20.3999 20.1544 20.4195C19.6072 20.587 19.0417 20.6886 18.4708 20.7189C15.8944 20.7189 13.7962 18.9224 13.7962 16.7266C13.7962 14.5308 15.9017 12.7218 18.4708 12.7218C20.9999 12.7218 23.1381 14.5486 23.1381 16.7141C23.1381 17.8102 22.4526 18.9331 21.209 19.8795V19.8706H21.2108Z"/>
</mask>
<path d="M19.0326 11.8948H18.9908V11.8538C18.9926 11.8449 18.9926 11.836 18.9908 11.827C18.4235 9.18389 15.6253 7.2002 12.469 7.2002C8.89806 7.2002 5.99988 9.71145 5.99988 12.8109C5.99988 14.4559 6.81988 15.9406 8.36715 17.1187L8.39624 17.1401L7.86351 18.7905C7.81806 18.9117 7.85442 19.0507 7.95442 19.1327C8.05079 19.2182 8.18715 19.2396 8.30351 19.1844L10.3562 18.1453L10.6053 18.197C11.2162 18.3467 11.8417 18.4287 12.469 18.4429C12.7162 18.434 12.9617 18.4002 13.2017 18.3413H13.2435L13.2617 18.3841C14.0599 20.293 16.1544 21.5709 18.4744 21.5709C19.0744 21.5495 19.6708 21.4532 20.249 21.2857H20.269L21.849 22.1608C21.9617 22.2232 22.0999 22.2107 22.1999 22.1287C22.2999 22.0467 22.3417 21.9131 22.3053 21.7883L21.9053 20.4427L21.929 20.4195C23.269 19.3252 23.9999 18.0205 23.9999 16.7284C23.9999 14.2866 21.8108 12.1764 19.0181 11.9179L19.0326 11.8948ZM12.9072 16.5769C12.9072 16.8995 12.9472 17.2221 13.0253 17.5357L13.0399 17.5963H12.9817C12.8126 17.6106 12.6381 17.6177 12.4708 17.6177C11.9053 17.6017 11.3435 17.5233 10.7944 17.3878L10.4544 17.3183C10.3872 17.304 10.3181 17.313 10.2562 17.345L8.8417 18.0633L9.2017 16.9672C9.24533 16.8424 9.20533 16.7052 9.1017 16.625C7.62351 15.5734 6.85988 14.2937 6.85988 12.8233C6.85988 10.1731 9.37988 8.03075 12.4799 8.03075C15.1417 8.03075 17.5799 9.67581 18.129 11.8591L18.1472 11.9215H18.0817C15.2235 11.9928 12.9072 14.0906 12.9072 16.5769ZM21.2108 19.8706C21.109 19.9472 21.0653 20.0809 21.1035 20.2038L21.3308 20.9791L20.3726 20.4462C20.3053 20.4088 20.2272 20.3999 20.1544 20.4195C19.6072 20.587 19.0417 20.6886 18.4708 20.7189C15.8944 20.7189 13.7962 18.9224 13.7962 16.7266C13.7962 14.5308 15.9017 12.7218 18.4708 12.7218C20.9999 12.7218 23.1381 14.5486 23.1381 16.7141C23.1381 17.8102 22.4526 18.9331 21.209 19.8795V19.8706H21.2108Z" fill="#5D5B6A"/>
<path d="M19.0326 11.8948L20.7265 12.9582L22.6497 9.89477H19.0326V11.8948ZM18.9908 11.8948H16.9908V13.8948H18.9908V11.8948ZM18.9908 11.8538L17.0312 11.454L16.9908 11.6518V11.8538H18.9908ZM18.9908 11.827L20.9504 11.4272L20.9484 11.4173L20.9463 11.4074L18.9908 11.827ZM8.36715 17.1187L7.15557 18.7099L7.16893 18.7201L7.18246 18.7301L8.36715 17.1187ZM8.39624 17.1401L10.2995 17.7544L10.7424 16.3826L9.58093 15.5287L8.39624 17.1401ZM7.86351 18.7905L9.73614 19.4928L9.7525 19.4492L9.76682 19.4048L7.86351 18.7905ZM7.95442 19.1327L9.28223 17.637L9.25284 17.611L9.22245 17.586L7.95442 19.1327ZM8.30351 19.1844L9.16136 20.9911L9.18421 20.9802L9.20677 20.9688L8.30351 19.1844ZM10.3562 18.1453L10.7626 16.187L10.0774 16.0448L9.45298 16.3609L10.3562 18.1453ZM10.6053 18.197L11.0814 16.2545L11.0467 16.246L11.0117 16.2387L10.6053 18.197ZM12.469 18.4429L12.4235 20.4424L12.4823 20.4438L12.541 20.4416L12.469 18.4429ZM13.2017 18.3413V16.3413H12.9602L12.7257 16.3988L13.2017 18.3413ZM13.2435 18.3413L15.0841 17.559L14.5666 16.3413H13.2435V18.3413ZM13.2617 18.3841L15.1069 17.6125L15.1023 17.6018L13.2617 18.3841ZM18.4744 21.5709V23.5709H18.5101L18.5457 23.5696L18.4744 21.5709ZM20.249 21.2857V19.2857H19.965L19.6923 19.3647L20.249 21.2857ZM20.269 21.2857L21.238 19.5361L20.7858 19.2857H20.269V21.2857ZM21.849 22.1608L20.8799 23.9104L20.8806 23.9107L21.849 22.1608ZM22.3053 21.7883L24.2255 21.2287L24.2224 21.2184L22.3053 21.7883ZM21.9053 20.4427L20.5052 19.0145L19.645 19.8578L19.9882 21.0125L21.9053 20.4427ZM21.929 20.4195L20.6639 18.8704L20.5937 18.9278L20.5289 18.9913L21.929 20.4195ZM19.0181 11.9179L17.3242 10.8545L15.5945 13.6097L18.8338 13.9094L19.0181 11.9179ZM13.0253 17.5357L14.9701 17.0689L14.9681 17.0605L14.966 17.0521L13.0253 17.5357ZM13.0399 17.5963V19.5963H15.5767L14.9846 17.1295L13.0399 17.5963ZM12.9817 17.5963V15.5963H12.8975L12.8136 15.6034L12.9817 17.5963ZM12.4708 17.6177L12.4141 19.6169L12.4424 19.6177H12.4708V17.6177ZM10.7944 17.3878L11.2734 15.446L11.2344 15.4364L11.195 15.4283L10.7944 17.3878ZM10.4544 17.3183L10.0397 19.2748L10.0468 19.2763L10.0538 19.2778L10.4544 17.3183ZM10.2562 17.345L11.1617 19.1283L11.1696 19.1243L11.1775 19.1202L10.2562 17.345ZM8.8417 18.0633L6.94155 17.4392L5.43111 22.0382L9.74719 19.8466L8.8417 18.0633ZM9.2017 16.9672L7.31384 16.3069L7.30752 16.325L7.30155 16.3431L9.2017 16.9672ZM9.1017 16.625L10.3257 15.0433L10.2939 15.0187L10.261 14.9953L9.1017 16.625ZM18.129 11.8591L16.1894 12.3469L16.1984 12.383L16.2089 12.4188L18.129 11.8591ZM18.1472 11.9215V13.9215H20.8133L20.0673 11.3619L18.1472 11.9215ZM18.0817 11.9215V9.9215H18.0568L18.0318 9.92213L18.0817 11.9215ZM21.2108 19.8706L22.4135 21.4685L27.1936 17.8706H21.2108V19.8706ZM21.1035 20.2038L23.0228 19.6412L23.0183 19.626L23.0136 19.6108L21.1035 20.2038ZM21.3308 20.9791L20.3587 22.727L24.6225 25.0984L23.25 20.4165L21.3308 20.9791ZM20.3726 20.4462L19.4002 22.194L19.4005 22.1941L20.3726 20.4462ZM20.1544 20.4195L19.6339 18.4884L19.6013 18.4972L19.569 18.5071L20.1544 20.4195ZM18.4708 20.7189V22.7189H18.5238L18.5768 22.7161L18.4708 20.7189ZM21.209 19.8795H19.209V23.9147L22.4201 21.471L21.209 19.8795ZM21.209 19.8706V17.8706H19.209V19.8706H21.209ZM19.0326 9.89477H18.9908V13.8948H19.0326V9.89477ZM20.9908 11.8948V11.8538H16.9908V11.8948H20.9908ZM20.9504 12.2536C21.0061 11.9809 21.0061 11.7 20.9504 11.4272L17.0312 12.2269C16.9791 11.9719 16.9791 11.7089 17.0312 11.454L20.9504 12.2536ZM20.9463 11.4074C20.1378 7.64028 16.3448 5.2002 12.469 5.2002V9.2002C14.9059 9.2002 16.7093 10.7275 17.0353 12.2467L20.9463 11.4074ZM12.469 5.2002C8.07087 5.2002 3.99988 8.34855 3.99988 12.8109H7.99988C7.99988 11.0744 9.72525 9.2002 12.469 9.2002V5.2002ZM3.99988 12.8109C3.99988 15.2028 5.21774 17.2345 7.15557 18.7099L9.57873 15.5274C8.42202 14.6467 7.99988 13.7091 7.99988 12.8109H3.99988ZM7.18246 18.7301L7.21155 18.7514L9.58093 15.5287L9.55184 15.5073L7.18246 18.7301ZM6.49294 16.5257L5.96021 18.1761L9.76682 19.4048L10.2995 17.7544L6.49294 16.5257ZM5.99089 18.0882C5.64942 18.9986 5.9139 20.046 6.6864 20.6793L9.22245 17.586C9.79495 18.0554 9.9867 18.8247 9.73614 19.4928L5.99089 18.0882ZM6.62662 20.6283C7.30379 21.2295 8.29693 21.4015 9.16136 20.9911L7.44567 17.3777C8.07737 17.0778 8.79779 17.207 9.28223 17.637L6.62662 20.6283ZM9.20677 20.9688L11.2595 19.9297L9.45298 16.3609L7.40025 17.4L9.20677 20.9688ZM9.94989 20.1036L10.199 20.1553L11.0117 16.2387L10.7626 16.187L9.94989 20.1036ZM10.1293 20.1395C10.8826 20.3241 11.6525 20.4249 12.4235 20.4424L12.5144 16.4435C12.0309 16.4325 11.5499 16.3693 11.0814 16.2545L10.1293 20.1395ZM12.541 20.4416C12.923 20.4279 13.3038 20.3755 13.6777 20.2839L12.7257 16.3988C12.6196 16.4248 12.5095 16.4402 12.3969 16.4442L12.541 20.4416ZM13.2017 20.3413H13.2435V16.3413H13.2017V20.3413ZM11.4029 19.1237L11.4211 19.1665L15.1023 17.6018L15.0841 17.559L11.4029 19.1237ZM11.4165 19.1557C12.5725 21.9202 15.4762 23.5709 18.4744 23.5709V19.5709C16.8326 19.5709 15.5473 18.6657 15.1069 17.6126L11.4165 19.1557ZM18.5457 23.5696C19.3118 23.5423 20.0712 23.4195 20.8056 23.2067L19.6923 19.3647C19.2704 19.487 18.837 19.5567 18.4032 19.5721L18.5457 23.5696ZM20.249 23.2857H20.269V19.2857H20.249V23.2857ZM19.2999 23.0353L20.8799 23.9104L22.818 20.4112L21.238 19.5361L19.2999 23.0353ZM20.8806 23.9107C21.7106 24.3701 22.7349 24.2763 23.4679 23.6754L20.9319 20.5821C21.4648 20.1451 22.2127 20.0763 22.8173 20.4109L20.8806 23.9107ZM23.4679 23.6754C24.1852 23.0873 24.4869 22.1257 24.2254 21.2287L20.3852 22.348C20.1965 21.7004 20.4145 21.0062 20.9319 20.5821L23.4679 23.6754ZM24.2224 21.2184L23.8224 19.8728L19.9882 21.0125L20.3882 22.3582L24.2224 21.2184ZM23.3054 21.8709L23.3291 21.8477L20.5289 18.9913L20.5052 19.0145L23.3054 21.8709ZM23.194 21.9686C24.8323 20.6306 25.9999 18.8076 25.9999 16.7284H21.9999C21.9999 17.2335 21.7056 18.0197 20.6639 18.8704L23.194 21.9686ZM25.9999 16.7284C25.9999 13.0311 22.7864 10.2581 19.2023 9.92645L18.8338 13.9094C20.8352 14.0946 21.9999 15.5421 21.9999 16.7284H25.9999ZM20.7119 12.9813L20.7265 12.9582L17.3387 10.8314L17.3242 10.8545L20.7119 12.9813ZM10.9072 16.5769C10.9072 17.0643 10.9675 17.5493 11.0847 18.0194L14.966 17.0521C14.9268 16.8948 14.9072 16.7346 14.9072 16.5769H10.9072ZM11.0806 18.0025L11.0951 18.0631L14.9846 17.1295L14.9701 17.0689L11.0806 18.0025ZM13.0399 15.5963H12.9817V19.5963H13.0399V15.5963ZM12.8136 15.6034C12.7017 15.6129 12.5833 15.6177 12.4708 15.6177V19.6177C12.6929 19.6177 12.9235 19.6084 13.1497 19.5893L12.8136 15.6034ZM12.5275 15.6185C12.1092 15.6067 11.6889 15.5485 11.2734 15.446L10.3154 19.3296C10.9981 19.498 11.7014 19.5967 12.4141 19.6169L12.5275 15.6185ZM11.195 15.4283L10.855 15.3588L10.0538 19.2778L10.3938 19.3473L11.195 15.4283ZM10.8691 15.3618C10.3554 15.2529 9.81356 15.3215 9.33498 15.5699L11.1775 19.1202C10.8226 19.3044 10.4189 19.3552 10.0397 19.2748L10.8691 15.3618ZM9.35074 15.5618L7.9362 16.28L9.74719 19.8466L11.1617 19.1283L9.35074 15.5618ZM10.7418 18.6874L11.1018 17.5913L7.30155 16.3431L6.94155 17.4392L10.7418 18.6874ZM11.0896 17.6275C11.4132 16.7021 11.1197 15.6577 10.3257 15.0433L7.87765 18.2067C7.29099 17.7527 7.07744 16.9828 7.31384 16.3069L11.0896 17.6275ZM10.261 14.9953C9.16088 14.2127 8.85988 13.4826 8.85988 12.8233H4.85988C4.85988 15.1049 6.08615 16.9342 7.94235 18.2547L10.261 14.9953ZM8.85988 12.8233C8.85988 11.5662 10.1719 10.0307 12.4799 10.0307V6.03075C8.58781 6.03075 4.85988 8.77998 4.85988 12.8233H8.85988ZM12.4799 10.0307C14.4619 10.0307 15.9169 11.2634 16.1894 12.3469L20.0686 11.3713C19.2429 8.08823 15.8215 6.03075 12.4799 6.03075V10.0307ZM16.2089 12.4188L16.227 12.4811L20.0673 11.3619L20.0491 11.2995L16.2089 12.4188ZM18.1472 9.9215H18.0817V13.9215H18.1472V9.9215ZM18.0318 9.92213C14.3357 10.0143 10.9072 12.7742 10.9072 16.5769H14.9072C14.9072 15.4069 16.1113 13.9713 18.1316 13.9209L18.0318 9.92213ZM20.008 18.2726C19.2324 18.8564 18.9046 19.8665 19.1935 20.7969L23.0136 19.6108C23.2261 20.2952 22.9855 21.0379 22.4135 21.4685L20.008 18.2726ZM19.1843 20.7665L19.4116 21.5418L23.25 20.4165L23.0228 19.6412L19.1843 20.7665ZM22.3029 19.2313L21.3447 18.6984L19.4005 22.1941L20.3587 22.727L22.3029 19.2313ZM21.345 18.6985C20.8166 18.4046 20.2022 18.3352 19.6339 18.4884L20.675 22.3506C20.2521 22.4646 19.7941 22.4131 19.4002 22.194L21.345 18.6985ZM19.569 18.5071C19.1739 18.6281 18.7693 18.7003 18.3648 18.7217L18.5768 22.7161C19.3141 22.677 20.0404 22.546 20.7399 22.3319L19.569 18.5071ZM18.4708 18.7189C16.693 18.7189 15.7962 17.5349 15.7962 16.7266H11.7962C11.7962 20.3099 15.0958 22.7189 18.4708 22.7189V18.7189ZM15.7962 16.7266C15.7962 15.9128 16.7068 14.7218 18.4708 14.7218V10.7218C15.0966 10.7218 11.7962 13.1488 11.7962 16.7266H15.7962ZM18.4708 14.7218C20.2005 14.7218 21.1381 15.9354 21.1381 16.7141H25.1381C25.1381 13.1618 21.7993 10.7218 18.4708 10.7218V14.7218ZM21.1381 16.7141C21.1381 16.9488 20.9693 17.5486 19.9978 18.2879L22.4201 21.471C23.9359 20.3175 25.1381 18.6716 25.1381 16.7141H21.1381ZM23.209 19.8795V19.8706H19.209V19.8795H23.209ZM21.209 21.8706H21.2108V17.8706H21.209V21.8706Z" fill="#5D5B6A" mask="url(#path-2-inside-1)"/>
<path d="M10.398 10.7485C10.5275 10.7485 10.6089 10.8516 10.6089 10.9482C10.6089 11.0448 10.5275 11.1479 10.398 11.1479C10.2684 11.1479 10.1871 11.0448 10.1871 10.9482C10.1871 10.8516 10.2684 10.7485 10.398 10.7485ZM14.6962 10.7485C14.8257 10.7485 14.9071 10.8516 14.9071 10.9482C14.9071 11.0448 14.8257 11.1479 14.6962 11.1479C14.5666 11.1479 14.4853 11.0448 14.4853 10.9482C14.4853 10.8516 14.5666 10.7485 14.6962 10.7485ZM16.9307 14.9208C17.1564 14.9208 17.318 15.1021 17.318 15.3006C17.318 15.499 17.1564 15.6803 16.9307 15.6803C16.705 15.6803 16.5434 15.499 16.5434 15.3006C16.5434 15.1021 16.705 14.9208 16.9307 14.9208ZM20.2525 14.9208C20.4782 14.9208 20.6398 15.1021 20.6398 15.3006C20.6398 15.499 20.4782 15.6803 20.2525 15.6803C20.0268 15.6803 19.8652 15.499 19.8652 15.3006C19.8652 15.1022 20.0268 14.9208 20.2525 14.9208Z" fill="#5D5B6A" stroke="#5D5B6A" stroke-width="2"/>
</svg>
