<?xml version="1.0" encoding="utf-8"?>
<!-- Generator: Adobe Illustrator 24.1.2, SVG Export Plug-In . SVG Version: 6.00 Build 0)  -->
<svg version="1.1" id="_x33_9250477-e5d6-4a3d-8b5f-50e75f57531b"
	 xmlns="http://www.w3.org/2000/svg" xmlns:xlink="http://www.w3.org/1999/xlink" x="0px" y="0px" viewBox="0 0 1008 743.8"
	 style="enable-background:new 0 0 1008 743.8;" xml:space="preserve">
<style type="text/css">
	.st0{fill:#FFDF9C;}
	.st1{fill:#E2E7F0;}
	.st2{opacity:0.4;fill:#FFFFFF;enable-background:new    ;}
	.st3{fill:#D8E2F0;}
	.st4{opacity:0.1;enable-background:new    ;}
	.st5{fill:#F9A826;}
	.st6{fill:url(#SVGID_1_);}
	.st7{fill:#FFCDD3;}
	.st8{opacity:5.000000e-02;enable-background:new    ;}
	.st9{fill:#DCE6F2;}
	.st10{fill:#FF748E;}
	.st11{fill:#2D283D;}
</style>
<circle class="st0" cx="887.4" cy="49.7" r="49.7"/>
<g>
	<rect x="401.5" y="115.5" class="st1" width="197.6" height="66.7"/>
	<rect x="415.5" y="118.1" class="st2" width="50.3" height="61.4"/>
	<rect x="426.1" y="136.4" class="st3" width="29.5" height="23.7"/>
	<rect x="476.4" y="118.1" class="st2" width="50.3" height="61.4"/>
	<rect x="487" y="136.4" class="st3" width="29.5" height="23.7"/>
	<rect x="537.3" y="118.1" class="st2" width="50.3" height="61.4"/>
	<rect x="547.9" y="136.4" class="st3" width="29.5" height="23.7"/>
	<path class="st4" d="M599.1,115.5v5H402.6h-1.1v-5H599.1z"/>
	<path class="st5" d="M589.7,77.1l-26.3-20.3H435.6l-24.3,20.1h0.1c-7.7,3.8-24.3,10-43.9,6.1c0,0,1,34.8,35,34.8h197.8
		c0,0,28.4,1.3,32.6-34.8C618.3,85.1,603.3,83,589.7,77.1z"/>
	<rect x="364.4" y="251.7" class="st1" width="279.3" height="94.2"/>
	<rect x="384.1" y="247.6" class="st2" width="71" height="86.7"/>
	<rect x="399.2" y="273.6" class="st3" width="41.7" height="33.5"/>
	<rect x="470.2" y="247.6" class="st2" width="71" height="86.7"/>
	<rect x="485.2" y="273.6" class="st3" width="41.7" height="33.5"/>
	<rect x="556.2" y="247.6" class="st2" width="71" height="86.7"/>
	<rect x="571.3" y="273.6" class="st3" width="41.7" height="33.5"/>
	<rect x="337.7" y="449.8" class="st5" width="339.4" height="118.8"/>
	<rect x="337.7" y="449.8" class="st1" width="339.4" height="118.8"/>
	<rect x="373.2" y="449.8" class="st3" width="102.4" height="116.1"/>
	<rect x="393.7" y="449.8" class="st2" width="61.5" height="116.1"/>
	<rect x="407.4" y="466.9" class="st3" width="30.7" height="82.6"/>
	<rect x="537.8" y="449.8" class="st3" width="102.4" height="116.1"/>
	<rect x="558.3" y="449.8" class="st2" width="61.5" height="116.1"/>
	<rect x="571.9" y="466.9" class="st3" width="30.7" height="82.6"/>
	<path class="st5" d="M720.8,563.1V449.8c9-0.2,60.2-4.1,68.3-74.4c0,0-44.3,8.7-92.5-12.6l-56.3-43.4H367.1l-51.9,43h0.3
		c-16.5,8.1-52,21.3-93.8,13c0,0,1.9,69.5,67.6,74.2v113.6 M289.2,563.1h431.6 M696.9,563.1H313.1 M313.1,563.1V449.8h383.8v113.4"
		/>
	<rect x="364.4" y="251.7" class="st4" width="279.3" height="12.1"/>
	<path class="st5" d="M636.6,199.6l-37.8-30.7H401.4l-34.7,30.4h0.2c-11.7,5.7-36.8,15.1-66.4,9.2c0,0,1.5,52.7,52.9,52.7h299.3
		c0,0,43,1.9,49.3-52.7C702,208.4,670.7,214.6,636.6,199.6z"/>
	<rect x="337.4" y="449.4" class="st4" width="339.4" height="3.5"/>
	<path class="st4" d="M315.5,362.7h381.1C696.6,362.7,532,376.5,315.5,362.7z"/>
	<path class="st4" d="M364,198.8h272.5C636.5,198.8,518.8,212.6,364,198.8z"/>
	<path class="st4" d="M411.1,76.6H590C590,76.6,512.8,90.4,411.1,76.6z"/>
	<rect x="58.3" y="562.1" class="st3" width="949.7" height="25.6"/>
</g>
<linearGradient id="SVGID_1_" gradientUnits="userSpaceOnUse" x1="2073.6919" y1="-69.6945" x2="2073.6919" y2="465.4071" gradientTransform="matrix(1 0 0 -1 -1303.3837 665.1556)">
	<stop  offset="0" style="stop-color:#808080;stop-opacity:0.25"/>
	<stop  offset="0.54" style="stop-color:#808080;stop-opacity:0.12"/>
	<stop  offset="1" style="stop-color:#808080;stop-opacity:0.1"/>
</linearGradient>
<path class="st6" d="M830.4,327.2c3.6,4.5,7,9.2,11.5,12.6c10.8,8.3,25.8,7.8,39.5,8.8c5,0.4,10.1,1,15.1,0c1.9-0.4,3.8-1.1,5.5-2
	c3.4-1.4,6.1-4,7.6-7.4c2.5-6.7-2-13.9-7.3-18.8s-11.6-8.9-14.6-15.4c-4-8.7-0.8-19.7-5.8-27.9c-0.9-1.7-2.3-3-4.1-3.7
	c-2.2-0.8-4.6-0.3-7-0.2c-9.2,0.3-16.9-7-21.2-15c-4.2-8-6-17.2-9.9-25.4c-4.4-9.3-11.7-17.6-21.2-21.6c-5.6-2.4-11.6-3.2-17.5-4.9
	c-6.6-1.9-12.9-4.9-19.7-6.1c-5.5-1-11.5-0.7-16.3,2c-1.7,0.7-3.3,1.8-4.6,3c-4.7,4.5-6,11.5-10.5,16.2c-1.6,1.8-3.8,3.3-4.6,5.6
	c-1.2,3.4,2,4.9,5.3,6c-2.6,4.7-4,10-4,15.4c0,16.3,12.2,29.9,28.4,31.8c0.3,0.5,0.6,1,0.9,1.5h0.1c2,3.5,3.7,7,5.2,10.7
	c-1,3.3-2.2,6.7-1.6,10.1c0.6,2.9,2.3,5.5,4.8,7.2c-4.3,2.6-8.1,5.9-11.4,9.7c-3.8,4.4-8.4,8.5-12.4,9.5c-0.5,0.1-1,0.3-1.5,0.4
	c-3.1,1.3-13.4,6.7-10.2,21.7c3.7,17.6-4.4,44.1-4.4,44.1l-3,22.1l-0.1,0.8l-26.7,17.7c0,0-42.1,14-28.1,30.2s36.2-17.7,36.2-17.7
	l16.4-7.5c-0.1,1.2-0.3,2.5-0.4,3.9c-2.1,20.3-5.6,46.5-10,58.8c0,0,0.1,0.1,0.3,0.3l-5.4,20.3l-9.6,44.9c0,0-5.2,9.6,0,29.4
	l-17,55.2v0.1v0.2v0.1v0.1l-0.1,0.3v0.1c-1.2,4.2-6.3,21.7-11,30.3l-0.1,0.1c-0.3,0.5-0.6,1-0.9,1.5l-0.2,0.3
	c-0.2,0.3-0.3,0.5-0.5,0.7l0,0l-0.2,0.3l-0.1,0.2l-0.2,0.2l-0.2,0.2c-1.7-0.9-3.8-0.6-5.1,0.8c-0.8,0.8-1.4,1.7-2,2.6
	c-3,5.2-25,9.4-29.5,7.9s-20-2.9-16.3,8.1s70.2,27.2,70.2,27.2s7.4-10.3,6.7-17.7c-0.4-4.9-0.4-9.8,0-14.7c-1,0.9-2,1.7-3.1,2.4
	v-0.1l0.1-0.3l0.2-0.7c0.1-0.6,0.3-1.2,0.5-1.9v-0.1l0.1-0.5l0.1-0.4l0.1-0.4l0.2-0.9l0.1-0.2l0.2-0.8l0.1-0.3l0.2-0.8l0.1-0.2
	l0.3-1l0.1-0.2l0.3-0.8l0.1-0.3l0.3-0.9v-0.1l0.3-1l0.1-0.3l0.3-0.7l0.1-0.3l0.3-0.9l0.1-0.2l0.3-0.8l0.1-0.4l0.3-0.7l0.2-0.3
	l0.4-0.9l0.1-0.3l0.3-0.6l0.2-0.3l0.3-0.6l0.1-0.3l0.4-0.8l0.1-0.3l0.3-0.5l0.2-0.3l0.4-0.5l0.1-0.2c0.1-0.2,0.3-0.4,0.5-0.6
	l0.1-0.2l0.4-0.4l0.1-0.2c0.2-0.2,0.3-0.3,0.5-0.5c5.9-5.2,25.1-56.6,25.1-56.6l5.9-36c0,0,14.8-39.4,29.5-56.1l26.6,44.4
	c4.4,8.1,23.7,28.7,23.7,28.7s19.2,38.2,31.8,53.6c7,8.5,8.2,19.8,8,28.2c0,1.8-0.2,3.4-0.3,4.8c-1.6,4.7-4.5,9.8-9.9,11.9
	c-11.1,4.4-26.6,11.8-21.4,18.4c5.2,6.6,22.9,12.5,38.4,7.3s37.7-17.7,37.7-17.7l-11.1-29.4c-0.8,1.6-1.7,3.2-2.6,4.7
	c-0.3-0.4-0.6-0.8-0.9-1.2c-6.1-8.9-15.7-38.8-15.7-38.8c-9.6-44.9-34.7-66.2-34.7-66.2L832.6,557l-12.4-48.2c2.5-1.1,5-2.3,7.4-3.6
	c2.4,2.8,5.3,3.4,8.7,0.3c14.7-13.2-3-45.6-3-45.6s-0.7-16.2,0-27.9c0.7-11.7-6.7-36-6.7-36l-4.9-30.4l6.4-18.1
	C829.6,340.8,830.4,334,830.4,327.2z M808.4,393.7c0.5,8.7,2,25,5.6,33.9c2.4,5.8,3.2,13.8,3.4,20.8c-2.3-3.7-5.2-7-8.5-9.7
	c0,0-14.7-22.8-3.9-39.5C806.2,397.3,807.3,395.5,808.4,393.7L808.4,393.7z"/>
<path class="st7" d="M807.3,389.7c0,0,0.7,26.6,5.8,38.8s2.9,35.2,2.9,35.2s4.3,53.9,18.8,41s-2.9-44.5-2.9-44.5s-0.7-15.8,0-27.3
	c0.7-11.5-6.5-35.2-6.5-35.2l-5.8-35.9L807.3,389.7z"/>
<path class="st8" d="M807.3,389.7c0,0,0.7,26.6,5.8,38.8s2.9,35.2,2.9,35.2s4.3,53.9,18.8,41s-2.9-44.5-2.9-44.5s-0.7-15.8,0-27.3
	c0.7-11.5-6.5-35.2-6.5-35.2l-5.8-35.9L807.3,389.7z"/>
<path class="st7" d="M800.8,495.3c0,0-5,18.7-20.9,30.2s-33.9,59.6-33.9,59.6l-5.8,35.2c0,0-18.7,50.3-24.5,55.3
	s-10.1,26.6-10.1,26.6l-15.9,9.3c0,0-11.5-26.6-5.8-27.3c5.8-0.7,15.2-35.2,15.2-35.2l16.6-53.9c-5-19.4,0-28.7,0-28.7l9.3-43.8
	l10-37.4L800.8,495.3z"/>
<path class="st8" d="M735,485.2l-10,37.4l-9.4,43.8c0,0-5,9.3,0,28.7L699,649c0,0-6.7,24.6-12.3,32.7c-1,1.5-2,2.4-2.9,2.5
	c-5.8,0.7,5.8,27.3,5.8,27.3l15.9-9.4c0,0,0.3-1.5,0.9-3.9c1.5-6.4,5-19,9.2-22.7c5.8-5,24.5-55.3,24.5-55.3l5.8-35.2
	c0,0,18-48.1,33.9-59.6s20.9-30.2,20.9-30.2L735,485.2z"/>
<path class="st7" d="M891.9,680.4c-6-8.7-15.3-37.9-15.3-37.9c-9.4-43.8-33.9-64.7-33.9-64.7l-11.6-23l-14.4-56H756l9.7,9l-1.1,5.4
	l36.2,60.3c4.3,7.9,23.1,28,23.1,28s18.7,37.3,31,52.4c6.8,8.4,8.1,19.4,7.8,27.5c-0.1,3.8-0.5,7.6-1.3,11.3l26,2.9l5.8-13.7
	C892.7,681.6,892.2,681,891.9,680.4z"/>
<path class="st4" d="M694.7,698.6c0,0-9.4-5.8-7.2-9.3c0.5-1,0.9-2,1.1-3.1c0.5-1.7-0.3-3.6-1.9-4.5c-1,1.5-2,2.4-2.9,2.5
	c-5.8,0.7,5.8,27.3,5.8,27.3l15.9-9.3c0,0,0.3-1.5,0.9-3.9C703,700.5,697.8,702.7,694.7,698.6z"/>
<path class="st9" d="M686.7,690.7c-2.2,3.6,7.2,9.3,7.2,9.3c5,6.5,15.2-2.9,15.2-2.9c-0.4,4.8-0.4,9.6,0,14.4
	c0.7,7.2-6.5,17.2-6.5,17.2s-65-15.8-68.6-26.5s11.5-9.3,15.9-7.9c4.3,1.4,26-2.9,28.9-7.9c0.5-0.9,1.2-1.8,1.9-2.6
	c1-1.1,2.5-1.5,3.9-1.2c2.3,0.5,3.7,2.7,3.2,5C687.6,688.7,687.3,689.7,686.7,690.7z"/>
<path class="st4" d="M891.9,680.5c-2.1,3.2-5,6.7-7.4,5.9c0,0-9.4,2.2-12.3-1.4c-1-1.2-2.4-2.8-3.7-4.2c-0.3-0.3-0.6-0.6-1-0.8
	c-1.8-0.9-3.9-0.2-4.8,1.6c-0.1,3.8-0.5,7.6-1.3,11.3l26,2.9l5.8-13.7C892.7,681.6,892.2,681.1,891.9,680.5z"/>
<path class="st9" d="M872.9,686.4c2.9,3.6,12.3,1.4,12.3,1.4c4.3,1.4,10.1-10.8,10.1-10.8l10.8,28.7c0,0-21.7,12.2-36.8,17.2
	c-15.1,5-32.5-0.7-37.5-7.2s10.1-13.7,20.9-18c6.3-2.5,9.2-9.1,10.5-14.2c0.2-0.6,0.5-1.2,1-1.6c1.4-1.3,3.7-1.3,5,0.1
	C870.6,683.6,871.9,685.2,872.9,686.4z"/>
<path class="st7" d="M802.2,260.4c-3.6,29.4,16.6,47.4,16.6,47.4s-39,27.3-34.7,10.8s-13-40.2-13-40.2L802.2,260.4z"/>
<path class="st10" d="M808,439.3c0,0-14.4-22.3-3.8-38.6c6.4-9.6,11.7-20,15.7-30.9l6.9-19.6c0,0,8.7-35.2-7.9-46
	c0,0-13.7-3.6-18.8,2.2c0,0-3.1,1.4-6.7,2.7c-7.8,2.8-14.8,7.5-20.3,13.8c-3.8,4.3-8.1,8.4-12.1,9.3c-0.5,0.1-1,0.2-1.5,0.4
	c-3.1,1.2-13.1,6.6-10,21.2c3.6,17.2-4.3,43.1-4.3,43.1l-2.9,21.6c0,0-0.1,1.7-0.4,4.5c-0.3,3.3-0.7,8.1-1.3,13.9
	c-0.3,2.5-0.5,5.3-0.8,8.1c-2.1,19.8-5.5,45.4-9.8,57.5c0,0,6.3,8.3,33.9,5.9l1.5-0.1l-0.7,5c0,0,34.6,7.2,63.5-10.1
	C828.2,503.2,830.4,457.2,808,439.3z"/>
<path class="st8" d="M740.7,436.9c-0.3,2.5-0.5,5.3-0.8,8.1c-2.1,19.8-5.5,45.4-9.8,57.5c0,0,6.3,8.3,33.9,5.9l2.6-38.6L740.7,436.9
	z"/>
<path class="st4" d="M816.6,341.6c-7.9-9.3-26.7,10.8-26.7,10.8s-9.4,22.3-10.1,34.5c-0.7,12.2-15.9,21.5-15.9,21.5l-22,14.6
	c-0.4,4.7-1.1,12.7-2.1,22l23.4-10.8c0,0,23.1-15.8,25.3-19.4c2.2-3.6,2.2,0,6.5-10.8s17.3-35.2,17.3-35.2S824.5,350.9,816.6,341.6z
	"/>
<path class="st7" d="M816.7,337.9c7.9,9.3-4.3,27.3-4.3,27.3s-13,24.4-17.3,35.2c-4.3,10.8-4.3,7.2-6.5,10.8
	c-2.2,3.6-25.3,19.4-25.3,19.4l-39,18c0,0-21.7,33-35.4,17.2s27.4-29.5,27.4-29.5l47.6-31.6c0,0,15.2-9.3,15.9-21.5
	s10.1-34.5,10.1-34.5S808.7,328.6,816.7,337.9z"/>
<path class="st4" d="M797.2,332.2l15.9-8.6l12.3,4.3c0,0-2.9,22.3-2.2,18.7c0.4-1.8-2.7-2-5.9-1.7c-3.7,0.3-7.3-0.3-10.7-1.7
	c-1.8-0.8-3.8-1-5.1,0.6c-2.9,3.6-17.3,14.4-17.3,14.4L797.2,332.2z"/>
<path class="st10" d="M797.1,330.8l15.9-8.6l12.3,4.3c0,0-2.9,22.3-2.2,18.7c0.4-1.8-2.7-2-5.9-1.7c-3.7,0.3-7.3-0.3-10.7-1.8
	c-1.8-0.8-3.8-1-5.1,0.6c-2.9,3.6-17.3,14.4-17.3,14.4L797.1,330.8z"/>
<path class="st4" d="M766.5,357c-4.9,3-11,3.4-16.3,1.1"/>
<path class="st4" d="M779.5,286.3c-1.2,0-2.4-0.1-3.5-0.2c-2.2-3.8-4-6.3-4-6.3l31-18c-0.6,5-6-3.9-5.4,0.4
	C791.8,268.6,788.8,286.3,779.5,286.3z"/>
<ellipse class="st7" cx="778.7" cy="253.6" rx="31.4" ry="31.3"/>
<path class="st4" d="M756.3,240.7c-3-2.1-12.1-2.6-10.3-7.9c0.8-2.3,2.9-3.7,4.5-5.4c4.3-4.6,5.7-11.4,10.2-15.8
	c4.8-4.6,12.3-5.5,18.9-4.2c6.6,1.2,12.8,4.1,19.2,6c5.7,1.6,11.6,2.5,17,4.8c9.3,4,16.4,12,20.7,21.1c3.8,8,5.5,16.9,9.7,24.8
	s11.8,14.9,20.7,14.6c2.3-0.1,4.7-0.6,6.8,0.2c1.7,0.7,3.1,2,4,3.6c4.9,8,1.8,18.7,5.6,27.2c2.9,6.3,9.1,10.3,14.3,15
	c5.1,4.7,9.5,11.8,7.1,18.3c-1.7,4.6-6.5,7.6-11.3,8.5s-9.8,0.4-14.8,0c-13.3-0.9-27.9-0.4-38.5-8.6c-9.1-7-13.8-19.5-24.6-23.7
	c-6.4-2.5-13.5-1.4-20.4-2s-14.5-4.1-15.7-10.8c-0.7-3.9,1-7.8,2.1-11.6c3.1-10.8,0.2-24-9.4-29.9c-2.4-1.5-5.2-2.6-6.5-5
	c-0.9-1.8-0.9-3.8-1.1-5.8C763.8,248.7,760.8,243.8,756.3,240.7z"/>
<path class="st11" d="M757.7,240c-3-2.1-12.1-2.6-10.3-7.9c0.8-2.3,2.9-3.7,4.5-5.4c4.3-4.6,5.7-11.4,10.2-15.8
	c4.8-4.6,12.3-5.5,18.9-4.2c6.6,1.2,12.8,4.1,19.2,6c5.7,1.6,11.6,2.5,17,4.8c9.3,4,16.4,12,20.7,21.1c3.8,8,5.5,16.9,9.7,24.8
	c4.1,7.9,11.8,14.9,20.7,14.6c2.3-0.1,4.7-0.6,6.9,0.2c1.7,0.7,3.1,2,4,3.6c4.9,8,1.8,18.7,5.6,27.2c2.9,6.3,9.2,10.3,14.3,15
	c5.1,4.7,9.5,11.8,7.1,18.3c-1.7,4.6-6.5,7.6-11.4,8.5c-4.8,0.9-9.8,0.4-14.8,0c-13.3-0.9-27.9-0.4-38.5-8.6
	c-9.1-7-13.8-19.5-24.5-23.7c-6.4-2.5-13.5-1.4-20.4-2s-14.5-4.1-15.7-10.8c-0.7-3.9,1-7.8,2.1-11.6c3.1-10.8,0.2-24-9.4-29.9
	c-2.4-1.5-5.2-2.6-6.5-5c-0.9-1.8-0.9-3.8-1.1-5.8C765.3,248,762.3,243.1,757.7,240z"/>
</svg>
